<svg xmlns="http://www.w3.org/2000/svg" width="480" height="480"><path d="m239.313.625 2.927.002C258.137.667 273.42 1.592 289 5l2.988.65C327.614 13.668 360.481 29.2 389 52l2.527 1.997c6.831 5.475 13.165 11.309 19.348 17.503l1.442 1.442C420.719 81.382 428.193 90.223 435 100l1.307 1.826c28.735 40.192 43.172 88.338 43.068 137.487l-.002 2.927c-.04 15.897-.965 31.18-4.373 46.76l-.65 2.988C466.332 327.614 450.8 360.481 428 389l-1.997 2.527c-5.475 6.831-11.309 13.165-17.503 19.348l-1.442 1.442c-8.44 8.402-17.281 15.876-27.058 22.683l-1.826 1.307c-40.192 28.735-88.338 43.172-137.486 43.068l-2.928-.002c-15.897-.04-31.18-.965-46.76-4.373l-2.988-.65C152.386 466.332 119.519 450.8 91 428l-2.527-1.997c-6.831-5.475-13.165-11.309-19.348-17.503l-1.442-1.442C59.281 398.618 51.807 389.777 45 380l-1.307-1.826C14.958 337.982.52 289.836.625 240.688l.002-2.928C.667 221.863 1.592 206.58 5 191l.65-2.988C13.668 152.386 29.2 119.519 52 91l1.997-2.527c5.475-6.831 11.309-13.165 17.503-19.348l1.442-1.442C81.382 59.281 90.223 51.807 100 45l1.826-1.307C142.018 14.958 190.164.52 239.313.625Z" fill="#DAC9D0"/><path d="M289.313 32.563 293 34v2l2 .25c3.325.831 5.973 2.184 8.996 3.762 2.588 1.276 5.244 2.16 8.004 2.988v2l2.54.773c3.775 1.339 7.28 3.028 10.835 4.852l4.262 2.16 2.189 1.114a783.465 783.465 0 0 0 6.319 3.16c7.447 3.689 14.808 7.479 22.085 11.496 2.712 1.474 2.712 1.474 5.446 2.515C368 72 368 72 371 74c1.655.385 3.322.728 5 1v2l2.125.313c3.266.78 5.9 2.15 8.875 3.687.902 18.884 1.125 37.722 1.063 56.625-.006 2.676-.01 5.352-.014 8.027-.011 6.45-.028 12.899-.049 19.348l1.71-.05c5.093-.085 9.65.333 14.642 1.476l2.006.449c2.09.47 4.179.953 6.267 1.438 2.741.624 5.484 1.243 8.227 1.863l2.042.464c9.128 2.062 18.288 3.967 27.543 5.36 4.912.82 9.106 1.73 13.563 4 1.82 2.785 3 4.652 3 8h2c.677 1.245 1.34 2.496 2 3.75l1.125 2.11C473 196 473 196 473 200c-1.504 1.64-1.504 1.64-3.563 3.25-3.597 2.966-6.571 6.09-9.582 9.637-3.913 4.457-8.225 8.547-12.468 12.687-2.106 2.068-3.735 3.948-5.387 6.426h-2l-.75 1.875c-1.487 2.529-2.687 2.843-5.25 4.125a88.354 88.354 0 0 0-2 4c-5.367 6.743-5.367 6.743-8 9h-2v2c-1.313 1.438-1.313 1.438-3 3l-1.563 1.688C416 259 416 259 414 259l-1 3h-2l-.79 1.742c-1.3 2.426-2.779 4.309-4.585 6.383l-1.773 2.07c-1.859 1.812-3.48 2.792-5.852 3.805v2h-2l-.805 2.137c-1.26 3.019-2.735 5.815-4.32 8.675l-1.633 2.958L388 294h-2l-.813 2.063c-1.348 3.334-2.762 6.634-4.187 9.937h-2l-.25 2.188C378 311 378 311 376.305 313.094c-3.052 3.848-5.443 7.99-7.93 12.219-4.34 7.32-8.757 14.578-13.34 21.749-1.67 2.633-3.044 4.966-4.035 7.938-11.902.29-23.495-2.902-34.796-6.374-4.578-1.361-8.426-1.858-13.204-1.626l-2 7h-2l-1.125 3.688c-2.64 7.933-6.387 15.44-10.188 22.875-1.297 2.643-2.067 4.63-2.687 7.437l2.23.184 2.957.253 2.918.247c2.681.293 5.261.743 7.895 1.316-.374 5.802-1.341 9.785-4 15a203.758 203.758 0 0 0-2.059 9.098c-2.193 6.761-7.126 9.557-12.941 12.964-4.526 2.678-8.3 5.162-12 8.938-3.25.75-3.25.75-6 1v2c-2.555 1.727-2.555 1.727-5.875 3.625l-3.305 1.914C252 446 252 446 250 446v2l-2.375 1.063c-3.95 1.97-7.443 4.541-11.031 7.097C221.312 467 221.312 467 218 467v2c-5.468.145-10.401-.273-15.746-1.496l-2.11-.464c-1.456-.321-2.91-.647-4.364-.976-2.234-.505-4.47-.998-6.708-1.488-10.92-2.424-10.92-2.424-12.072-3.576a73.57 73.57 0 0 0-4.164-.613l-2.629-.338-2.832-.361c-7.89-1.056-15.284-2.56-22.922-4.817-3.444-.869-6.604-1.137-10.14-1.371C118.308 451.439 103.28 437.813 91 428l-2.516-1.981c-6.987-5.587-13.376-11.608-19.671-17.957l-2.827-2.802C60.221 399.478 54.948 393.496 50 387c1.313-1.5 1.313-1.5 3-3h3v-2c5.412-4 5.412-4 8-4v-2l6-2v-2c5.412-4 5.412-4 8-4v-2a95.731 95.731 0 0 1 6-4l1.898-1.195c1.336-.84 2.675-1.674 4.016-2.504 1.42-.886 2.831-1.785 4.234-2.696l2.102-1.355 1.89-1.234c1.943-1.061 3.699-1.576 5.86-2.016v-2c5.75-3 5.75-3 8-3v-2a123.08 123.08 0 0 1 6.875-4.625l1.973-1.273C125.732 335 125.732 335 128 335v-2c1.68-1.29 1.68-1.29 3.875-2.625l2.18-1.352C136 328 136 328 138 328v-2l5.176-2.832c4.771-3.055 5.72-6.471 7.012-11.856l.537-2.126c.434-1.727.856-3.456 1.275-5.186h2l-.188-2.5c.266-4.947 2.24-9.125 4.055-13.672 5.164-14.657 1.34-30.651-.847-45.543-1.07-7.382-1.821-14.77-2.424-22.204.028-3.86.028-3.86-1.596-7.081a148.44 148.44 0 0 1-.719-6.16l-.386-3.846-.395-4.056-.781-7.848-.372-3.769c-.265-2.54-.571-5.059-.929-7.587-.54-4.819-.602-9.576-.606-14.422l-.037-2.798c-.01-4.667.123-8.254 2.225-12.514.325-1.367.618-2.743.875-4.125 1.149-5.494 3.112-10.647 5.125-15.875 5.8.906 11.154 1.944 16.617 4.156 4.508 1.597 9.197 2.598 13.84 3.727 5.031 1.225 10.037 2.543 15.043 3.867l2.556.675L211 144c-.644 6.178-1.851 12.045-3.375 18.063l-.633 2.603c-.95 3.789-1.953 7.244-3.531 10.83-1.26 3.023-1.947 5.536-2.552 8.723l-.523 2.717L200 189l1.824.227a6880.24 6880.24 0 0 1 31.18 3.93c32.418 4.225 32.418 4.225 64.996 6.843l.41-2.188c1.123-5.351 2.69-10.632 4.777-15.687 1.051-2.369 1.051-2.369.813-6.125h3l.313-2.063c.645-2.757 1.57-5.177 2.722-7.757 1.263-2.854 2.456-5.735 3.652-8.618l1.325-3.183L316 152h3l1-8h3l.148-1.977c.424-4.956 1.009-9.353 2.852-14.023h2l.875-3.688c.803-3.23 1.788-6.255 3.125-9.312h2v-3h2l.422-1.746c2-7.795 5.145-14.994 8.578-22.254-3.438.454-6.875.914-10.313 1.375l-2.9.383C325.15 90.652 318.582 91.77 312 93c-4.018.727-8.04 1.43-12.063 2.125-1.01.182-2.022.364-3.064.55-15.8 2.707-15.8 2.707-21.713.048l-2.098-1.66c-2.496-1.917-4.039-3.055-7.062-4.063v-2h-2l-2-3c-2.06-.724-2.06-.724-4-1v-2l-5-2v-2h-3v-2l-2.125-.188C243.973 74.71 242.057 72.659 239 70l-3-1-.312 2c-1.186 7.08-3.005 13.752-5.25 20.563l-.96 2.978c-2.306 7.114-2.306 7.114-3.478 9.459h-2c-.146-4.264-.288-8.529-.427-12.793-.048-1.443-.096-2.885-.146-4.328A766.482 766.482 0 0 1 223 56l8.887-4.395c3.074-1.534 3.074-1.534 5.738-3.23 3.374-1.953 6.581-2.539 10.375-3.375v-2c.594-.23 1.189-.461 1.8-.7 4.61-1.813 9.147-3.71 13.637-5.8 3.778-1.725 7.568-3.369 11.438-4.875l2.617-1.023c4.293-1.03 7.814.399 11.82 1.96Z" fill="#92667D"/><path d="M236 69c4.34.5 6.75 3.292 10 6 2.217.853 2.217.853 4 1v2h3c1.563 1.438 1.563 1.438 3 3l2 1v2l5 1 1 3h2v2l1.773.34c3.047.903 5.145 2.677 7.641 4.601 7.45 3.05 16.57.616 24.211-.754l3.194-.55a834.771 834.771 0 0 0 17.556-3.262C328.863 88.74 337.404 87.845 346 87c-.315.75-.63 1.5-.953 2.273C340.24 100.528 340.24 100.528 336 112h-2v3h-2l-.621 2.336-.817 3.039-.808 3.023C329 126 329 126 328 128h-2l-.375 2.375c-.786 4.56-1.702 9.09-2.625 13.625h-3l-1 8h-3l-.422 1.781c-1.992 7.647-5.516 14.957-8.578 22.219h-3l.688 2.125c.412 3.797-.964 5.492-2.688 8.875a178.08 178.08 0 0 0-2.188 6.875L298 200c-11.88.355-23.348-.736-35.125-2.188l-5.633-.674A2890.24 2890.24 0 0 1 219 192.25l-2.416-.323c-2.237-.3-4.473-.605-6.709-.911l-3.82-.523C203 190 203 190 200 189c.232-5.337.867-10.076 2.844-15.063 2.296-6.104 3.885-12.29 5.406-18.625l.813-3.318c.65-2.663 1.297-5.328 1.937-7.994l-2.088-.35c-6.114-1.061-12.024-2.4-17.975-4.15-5.589-1.605-11.114-2.998-16.84-4.04-2.857-.627-5.492-1.642-8.202-2.73-2.912-1.122-5.885-1.915-8.895-2.73l-.313 2.5c-.662 3.372-1.674 6.231-2.925 9.41-1.203 3.301-1.951 6.673-2.762 10.09l-1 3c-1.13 13.238.455 26.444 2.27 39.535.755 5.453 1.215 10.87 1.52 16.367-.015 2.084-.015 2.084 1.21 3.098.313 2.917.576 5.826.813 8.75.672 7.807 1.62 15.536 2.758 23.289 4.56 31.052 4.56 31.052-.571 43.961-1.783 4.654-3.377 9.019-4 14h-2l-.313 3.5c-1.011 7.635-2.943 12.5-8.968 17.469C141 326 141 326 138 326v2c-1.68 1.29-1.68 1.29-3.875 2.625l-2.18 1.352C130 333 130 333 128 333v2c-2.047 1.402-2.047 1.402-4.75 2.938-2.604 1.488-5.072 2.926-7.453 4.753C114 344 114 344 112 344v2c-5.75 3-5.75 3-8 3v2l-2.23 1.172c-4.94 2.636-9.495 5.182-13.77 8.828-3.224 2.096-6.396 3.661-10 5v2c-5.412 4-5.412 4-8 4v2c-3 2-3 2-6 2v2c-5.412 4-5.412 4-8 4v2l-6 2c-11.916-13.318-20.577-29.834-28-46l-.999-2.164C12.324 318.779 6.215 298.7 3 278l-.535-3.407C.862 263.287.6 252.095.625 240.687l.002-2.927c.07-27.545 4.694-53.391 13.498-79.51l.695-2.114c1.356-3.81 2.527-6.231 6.18-8.136h3v-2c3.088-1.765 4.233-2 8-2v-2c2.906-1.257 4.796-2 8-2v-2c2.906-1.257 4.796-2 8-2v-2c.675-.182 1.35-.364 2.047-.55.892-.252 1.784-.504 2.703-.762l2.672-.739c2.614-.813 2.614-.813 4.578-2.512 2.487-1.787 4.218-1.925 7.25-2.125l2.703-.199L72 127v-2c2.103-.672 4.207-1.337 6.313-2l3.55-1.125C85 121 85 121 88 121v-2l1.977-.586 2.648-.789 2.781-.824a95.094 95.094 0 0 0 5.719-1.989c3.758-1.061 6.978-.946 10.875-.812v-2l8-1v-2l3.219-.586c10.453-1.92 10.453-1.92 20.781-4.414v-2h8v-2l2.184-.244c3.293-.37 6.586-.75 9.879-1.131l3.435-.383C173.22 97.575 178.499 96.68 184 95c2.716-.218 5.268-.096 8 0v-2c3.832-.508 7.666-1.005 11.5-1.5l3.266-.434C212.565 90.324 218.154 89.83 224 90v14h2l.48-2.063c1.806-7.502 3.99-14.83 6.336-22.175A359.747 359.747 0 0 0 236 69Z" fill="#DBC8C8"/><path d="m460 181 5 1 2 6h2c.677 1.245 1.34 2.496 2 3.75l1.125 2.11C473 196 473 196 473 200c-1.504 1.64-1.504 1.64-3.563 3.25-3.597 2.966-6.571 6.09-9.582 9.637-3.913 4.457-8.225 8.547-12.468 12.687-2.106 2.068-3.735 3.948-5.387 6.426h-2l-.75 1.875c-1.487 2.529-2.687 2.843-5.25 4.125a88.354 88.354 0 0 0-2 4c-5.367 6.743-5.367 6.743-8 9h-2v2c-1.313 1.438-1.313 1.438-3 3l-1.563 1.688C416 259 416 259 414 259l-1 3h-2l-.79 1.742c-1.3 2.426-2.779 4.309-4.585 6.383l-1.773 2.07c-1.859 1.812-3.48 2.792-5.852 3.805v2h-2l-.805 2.137c-1.26 3.019-2.735 5.815-4.32 8.675l-1.633 2.958L388 294h-2l-.813 2.063c-1.348 3.334-2.762 6.634-4.187 9.937h-2l-.25 2.188C378 311 378 311 376.305 313.094c-3.052 3.848-5.443 7.99-7.93 12.219-4.34 7.32-8.757 14.578-13.34 21.749-1.67 2.633-3.044 4.966-4.035 7.938-11.902.29-23.495-2.902-34.796-6.374-4.578-1.361-8.426-1.858-13.204-1.626l-2 7h-2l-1.125 3.688c-2.64 7.933-6.387 15.44-10.188 22.875-1.297 2.643-2.067 4.63-2.687 7.437l2.23.184 2.957.253 2.918.247c2.681.293 5.261.743 7.895 1.316-.374 5.802-1.341 9.785-4 15a203.758 203.758 0 0 0-2.059 9.098c-2.193 6.761-7.126 9.557-12.941 12.964-4.526 2.678-8.3 5.162-12 8.938-3.25.75-3.25.75-6 1v2c-2.555 1.727-2.555 1.727-5.875 3.625l-3.305 1.914C252 446 252 446 250 446v2l-2.375 1.063c-3.95 1.97-7.443 4.541-11.031 7.097C221.312 467 221.312 467 218 467v2c-5.468.145-10.401-.273-15.746-1.496l-2.11-.464c-1.456-.321-2.91-.647-4.364-.976-2.234-.505-4.47-.998-6.708-1.488-10.92-2.424-10.92-2.424-12.072-3.576a73.57 73.57 0 0 0-4.164-.613l-2.629-.338-2.832-.361c-7.89-1.056-15.284-2.56-22.922-4.817-3.444-.869-6.604-1.137-10.14-1.371C118.308 451.439 103.28 437.813 91 428l-2.516-1.981c-6.987-5.587-13.376-11.608-19.671-17.957l-2.827-2.802C60.221 399.478 54.948 393.496 50 387c1.313-1.5 1.313-1.5 3-3h3v-2c5.412-4 5.412-4 8-4v-2l6-2v-2c5.412-4 5.412-4 8-4v-2a95.731 95.731 0 0 1 6-4l1.898-1.195c1.336-.84 2.675-1.674 4.016-2.504 1.42-.886 2.831-1.785 4.234-2.696l2.102-1.355 1.89-1.234c1.943-1.061 3.699-1.576 5.86-2.016v-2c5.75-3 5.75-3 8-3v-2a123.08 123.08 0 0 1 6.875-4.625l1.973-1.273C125.732 335 125.732 335 128 335v-2c1.68-1.29 1.68-1.29 3.875-2.625l2.18-1.352C136 328 136 328 138 328v-2l5.176-2.832c4.771-3.055 5.72-6.471 7.012-11.856l.537-2.126c.434-1.727.856-3.456 1.275-5.186h2l-.188-2.5c.27-5.022 2.016-9.097 4.208-13.59 2.571-5.326 3.727-10.245 4.488-16.113.496-2.822 1.338-5.183 2.492-7.797h2l.684-1.895c1.763-2.82 3.2-3.001 6.379-3.793 3.253-.627 3.253-.627 5.937-2.312 2.965-.541 5.94-.965 8.922-1.402 2.915-.566 5.34-1.485 8.078-2.598h3l1 7 3-6h2v-2l5-1 2 3 3 1v2l1.672.75c2.78 1.492 5.11 3.287 7.578 5.25l2.703 2.125L230 266v2l5 1 1 3c2 1.209 2 1.209 4 2v2l1.75.875L248 280v2l1.813.813c2.174 1.18 3.455 2.455 5.187 4.187l3 1a180.068 180.068 0 0 1 3.395 3.465c2.719 2.6 5.785 4.757 8.812 6.984L272 300v2h3v2l1.75.875L283 308c-.449 5.294-1.012 8.518-4 13a74.363 74.363 0 0 0-1 4l6.152.488c3.276.589 6.253 1.62 9.393 2.703 4.942 1.629 10.01 2.816 15.053 4.09.813.21 1.626.418 2.464.633l2.223.561C315 334 315 334 316 335c1.68.334 3.37.615 5.063.875a547.037 547.037 0 0 1 15.687 2.75l2.168.41c1.694.32 3.388.643 5.082.965v-4h2l.219-2.055c1.023-3.857 3.065-6.811 5.281-10.07 3.213-4.691 3.213-4.691 5.5-9.875h2l.688-2.938c1.334-4.754 3.804-8.84 6.312-13.062h2l1-4h2v-4h2l.625-2.375c1.57-4.137 3.688-7.62 6.035-11.355 1.469-2.307 1.469-2.307 2.34-5.27h2l.75-1.688c1.48-2.736 3.185-4.989 5.25-7.312h2l.75-1.688c1.48-2.736 3.185-4.989 5.25-7.312h2l.75-1.688c1.48-2.736 3.185-4.989 5.25-7.312h2v-2h2v-2l2-1c1.116-1.65 1.116-1.65 2.125-3.563L416 232h2l.676-1.645c1.74-3.095 4.077-5.492 6.512-8.042 4.129-4.393 7.927-8.878 11.472-13.766L438 207h2l.688-2.25c1.577-3.305 3.453-4.504 6.312-6.75a744.352 744.352 0 0 0 4-6h2l.938-1.875L456 186h2v-2h2v-3Z" fill="#593D58"/><path d="m239.313.625 2.927.002C258.137.667 273.42 1.592 289 5l2.988.65C327.614 13.668 360.481 29.2 389 52l2.527 1.997c6.831 5.475 13.165 11.309 19.348 17.503l1.442 1.442C420.717 81.38 428.205 90.217 435 100l1.34 1.89c7.01 9.93 12.903 20.416 18.66 31.11l-3 1-2-1v-2l-2.152-.586-2.786-.789-2.777-.773C440 128 440 128 439 126a117.247 117.247 0 0 0-6.75-1.938c-4.608-1.19-8.253-2.483-12.25-5.062-2.191-.696-2.191-.696-4-1v-2a305.306 305.306 0 0 0-6.98-1.684l-3.207-.754-3.231-.746L400 112l-1-2c-2.547-.654-2.547-.654-5.5-1.063-5.405-.842-5.405-.842-6.5-1.937a120.4 120.4 0 0 1-.316-5.785l-.127-3.545-.12-3.733-.13-3.744c-.107-3.064-.209-6.128-.307-9.193l-10-4v-2l-3.375-.375C369 74 369 74 367 72a81.77 81.77 0 0 0-4.43-1.766c-5.8-2.251-11.212-5.057-16.695-7.984a6480.044 6480.044 0 0 0-6.066-3.2l-2.981-1.571C330.6 54.222 324.298 51.115 318 48l-6-3v-2l-3.313-.688C303.146 40.95 298.123 38.468 293 36v-2l-2.188-.375C288 33 288 33 285.75 31.812c-6.482-1.914-13.358 1.695-19.375 4.063l-1.882.74c-3.227 1.316-6.23 2.782-9.204 4.58C252 43 252 43 248 43v2c-.797.315-1.593.63-2.414.953-5.622 2.27-10.68 4.49-15.586 8.047-2.774 1.585-3.737 2-7 2l.219 2.867c.745 10.392.89 20.717.781 31.133-3.832.508-7.666 1.005-11.5 1.5l-3.266.434C203.435 92.676 197.846 93.17 192 93v2l-2.852.367-3.773.508-3.727.492c-3.56.506-3.56.506-6.46 1.664-4.498 1.367-8.886 1.434-13.563 1.594l-2.809.117c-2.272.094-4.543.18-6.816.258v2h-8v2c-3.036 2.024-4.38 2.384-7.887 2.852l-2.842.39-2.958.383-2.995.406c-2.438.33-4.878.653-7.318.969v2l-8 1v2l-2.309.332c-5.848.898-11.307 1.997-16.851 4.082C91 119 91 119 88 119v2a539.445 539.445 0 0 1-5.188 2l-2.917 1.125c-2.817.851-4.977 1.046-7.895.875v2l-1.977.297c-5.717.978-9.18 2.44-14.023 5.703-2.698.606-5.228.809-8 1v2c-3.088 1.765-4.233 2-8 2v2c-2.906 1.257-4.796 2-8 2v2c-2.906 1.257-4.796 2-8 2v2l-6 2c8.33-24.068 22.441-45.804 39-65l1.63-1.91C70.998 68.75 84.514 55.9 100 45l1.84-1.32C142.03 14.955 190.17.52 239.311.625Z" fill="#F1F1F1"/><path d="M289.313 32.563 293 34v2l2 .25c3.325.831 5.973 2.184 8.996 3.762 2.588 1.276 5.244 2.16 8.004 2.988v2l2.54.773c3.775 1.339 7.28 3.028 10.835 4.852l4.262 2.16 2.189 1.114a783.465 783.465 0 0 0 6.319 3.16c7.447 3.689 14.808 7.479 22.085 11.496 2.712 1.474 2.712 1.474 5.446 2.515C368 72 368 72 371 74c1.655.385 3.322.728 5 1v2l2.125.313c3.266.78 5.9 2.15 8.875 3.687.902 18.884 1.125 37.722 1.063 56.625-.006 2.676-.01 5.352-.014 8.027-.011 6.45-.028 12.899-.049 19.348l1.71-.05c5.093-.085 9.65.333 14.642 1.476l2.006.449c2.09.47 4.179.953 6.267 1.438 2.741.624 5.484 1.243 8.227 1.863l2.042.464c9.128 2.062 18.287 3.971 27.543 5.36 4.85.774 9.045 2.088 13.563 4l-4 1v3h-2v2h-2l-.723 1.645c-1.608 2.966-3.586 5.425-5.714 8.042l-2.372 2.95C445 201 445 201 442 202l-.875 2.25c-1.13 2.761-2.372 4.17-4.516 6.188-6.236 6.054-11.722 12.822-16.98 19.726L418 232h-2l-.875 1.75L412 240h-2v2l-12-1 1-5-7-4v-2l-2.23-.55c-10.218-2.633-10.218-2.633-13.77-5.45v-2l-6-1v-2l-2.188-.875a111.062 111.062 0 0 1-5.125-2.188c-3.56-1.242-6.936-1.556-10.687-1.937v2l-3.14.148-4.11.227-2.066.094c-3.73.217-6.439.694-9.684 2.531-2.25-.375-2.25-.375-4-1l1-2h2l-.125-2.563c.14-3.86.953-6.774 2.125-10.437h2l.188-3.125c.782-6.569 3.474-12.732 5.812-18.875 3.385.627 4.223 1.195 7 3.625 2.612 2.583 2.612 2.583 4.91 2.344 3.028-1.404 4.475-3.483 6.527-6.094l2.375-2.996a189.984 189.984 0 0 0 5.125-7.066L370 168h2l2-5h2l2-6c-3.014-3.361-5.973-5.03-10-7l-1.625-1.75L365 147c-1.994.041-1.994.041-4 1-1.565 2.067-1.565 2.067-2.75 4.563l-1.297 2.503L356 157c-4.752-.432-6.92-1.328-10-5 1.041-3.866 2.037-7.495 4-11h2v-2h2l.309-2.105c.808-3.386 2.158-6.118 3.753-9.208l1.66-3.238L361 122h2c-.399-4.886-1.31-7.86-3.95-12.102-1.895-3.425-2.915-7.166-4.05-10.898l-1-3h-2v-4h-2v-4c-1.393-.225-2.79-.429-4.188-.625l-2.355-.352c-2.466-.182-2.466-.182-4.61.86-4.278 1.678-8.68 2.043-13.222 2.617-6.074.774-11.735 1.78-17.625 3.5-3.257.638-6.53 1.137-9.813 1.625l-2.54.406c-14.833 2.235-14.833 2.235-20.487-.308l-2.098-1.66c-2.496-1.917-4.039-3.055-7.062-4.063v-2h-2l-2-3c-2.06-.724-2.06-.724-4-1v-2l-5-2v-2h-3v-2l-2.125-.188C243.973 74.71 242.057 72.659 239 70l-3-1-.312 2c-1.186 7.08-3.005 13.752-5.25 20.563l-.96 2.978c-2.306 7.114-2.306 7.114-3.478 9.459h-2c-.146-4.264-.288-8.529-.427-12.793-.048-1.443-.096-2.885-.146-4.328A766.482 766.482 0 0 1 223 56l8.887-4.395c3.074-1.534 3.074-1.534 5.738-3.23 3.374-1.953 6.581-2.539 10.375-3.375v-2c.594-.23 1.189-.461 1.8-.7 4.61-1.813 9.147-3.71 13.637-5.8 3.778-1.725 7.568-3.369 11.438-4.875l2.617-1.023c4.293-1.03 7.814.399 11.82 1.96Z" fill="#8D6C85"/><path d="M341 86c5.625-.25 5.625-.25 9 2v4h2v4h2a154.646 154.646 0 0 1 7.168 15.996c.667 1.966.667 1.966 1.832 3.004.04 2.333.042 4.667 0 7h-2l-.516 1.688c-1.717 5.408-3.837 10.293-6.484 15.312h-2v2h-2l-.375 1.563c-.811 3.164-1.72 6.298-2.625 9.437 4.023 3.47 4.023 3.47 9 5l.75-2.125c1.41-3.245 3.229-5.978 5.25-8.875l5 1 1 3 2.75.875c3.81 1.319 5.592 3.154 8.25 6.125l-3 6h-2l-2 5h-2l-.563 2c-2.074 4.33-5.222 7.472-8.437 11a663.746 663.746 0 0 0-3.438 4L355 188c-4.348-.826-6.657-3.154-10-6l-3-1-.34 1.95c-.87 4.019-2.044 7.924-3.223 11.863l-.708 2.388c-.575 1.934-1.152 3.866-1.729 5.799h-2l-.438 3.125c-.479 3.3-1 6.588-1.562 9.875h-2v2a84.76 84.76 0 0 0 7-2c2.573-.07 5.116-.094 7.688-.063l2.126.014c1.729.012 3.458.03 5.186.049v-2c7.246-.67 11.758 1.419 18 5v2l6 1v2l1.61.34c3 .829 5.774 2.008 8.64 3.222l3.266 1.38L392 230v2l2.875.75C398 234 398 234 399.563 235.813 400 238 400 238 398.75 240.75L397 243h-2l-1 3c-2.602 1.648-3.862 2-7 2v2l-3.813 1.438-2.144.808c-1.67.616-3.355 1.191-5.043 1.754v2c-3.088 1.765-4.233 2-8 2v3c-5.75 3-5.75 3-8 3v2l-8 1v3c-3.228 2.152-4.284 2.2-8 2v2a714.502 714.502 0 0 1-5.75 3l-3.234 1.688C332 280 332 280 328 280v3l-10 3v2h-4v2h-2v2h-3v2h-5v2l-5 1v2h-3v2c-1.432.7-2.87 1.384-4.313 2.063l-2.425 1.16C287 305 287 305 284 304c-1.098-2.957-1.098-2.957-2.063-6.813-.17-.682-.342-1.364-.519-2.067-1.469-5.994-2.496-12.02-3.418-18.12a1287.36 1287.36 0 0 0-.75-4.465l-.406-2.393-.792-4.65c-.363-2.162-.709-4.326-1.052-6.492l-.382-2.22c-.846-5.438-.846-5.438 1.382-8.78h2l.813-2.813C280 242 280 242 281.425 240.621c2.578-2.655 3.661-6.07 5.097-9.441C288 229 288 229 290.664 228.195L293 228v-2l3.875-.586 5.125-.789 2.543-.383c5.242-.813 10.368-1.727 15.457-3.242l1-2h-4v-3h-2l-2.25-2.313c-2.777-2.713-5.224-4.129-8.75-5.687v-2l-1.875-.875C300 204 300 204 298 202c-2.433-.462-2.433-.462-5.125-.625l-2.758-.227L288 201v-1h10l.41-2.188c1.123-5.351 2.69-10.632 4.777-15.687 1.051-2.369 1.051-2.369.813-6.125h3l.313-2.063c.645-2.757 1.57-5.177 2.722-7.757 1.263-2.854 2.456-5.735 3.652-8.618l1.325-3.183L316 152h3l1-8h3l.148-1.977c.424-4.956 1.009-9.353 2.852-14.023h2l.875-3.688c.803-3.23 1.788-6.255 3.125-9.312h2v-3h2l.422-1.746c2-7.795 5.145-14.994 8.578-22.254h-5l1-2Z" fill="#B2899D"/><path d="M157 130c5.8.906 11.154 1.944 16.617 4.156 4.508 1.597 9.197 2.598 13.84 3.727 5.031 1.225 10.037 2.543 15.043 3.867l2.556.675L211 144c-.644 6.178-1.851 12.045-3.375 18.063l-.633 2.603c-.95 3.789-1.953 7.244-3.531 10.83-1.26 3.023-1.947 5.536-2.552 8.723l-.523 2.717L200 189l1.824.228a33589.29 33589.29 0 0 1 40.038 5.016c4.11.516 8.218 1.035 12.327 1.557 8.82 1.113 17.634 2.224 26.483 3.078l3.657.365c2.11.204 4.224.39 6.338.555 6.011.585 9.175 1.719 13.333 6.201v2l1.766.348c2.4.7 3.963 1.634 5.984 3.09l1.86 1.308L315 214v2h2v3h4l-1 3c-3.908.736-7.817 1.47-11.727 2.2-2.538.473-5.074.955-7.609 1.445l-2.851.542c-.82.16-1.638.318-2.481.481C293 227 293 227 288 227v-10l-2.656-.148c-15.43-.91-30.897-1.907-46.219-3.977-5.753-.769-11.326-1.126-17.125-.875l-1 6h-12l-.375 5.875c-.618 8.738-1.61 17.426-2.625 26.125l2 1h-2v2h-2l-.375 1.813C203 257 203 257 201 260c-.597-2.763-1-5.16-1-8l-3.25 1.375c-3.563 1.352-6.984 2.061-10.75 2.625-6.373.966-12.417 2.65-18 6l-1 2h-2c-1.002 4.79-1.7 9.611-2.402 14.453L162 281l-2 1 .14-2.918c.354-11.25-.923-22.023-2.57-33.142a394.251 394.251 0 0 1-2.974-25.86c.028-3.858.028-3.858-1.596-7.08a148.44 148.44 0 0 1-.719-6.16l-.386-3.846-.395-4.056-.781-7.848-.372-3.769c-.265-2.54-.571-5.059-.929-7.587-.54-4.819-.602-9.576-.606-14.422l-.037-2.798c-.01-4.667.123-8.254 2.225-12.514.325-1.367.618-2.743.875-4.125 1.149-5.494 3.112-10.647 5.125-15.875Z" fill="#B28A9C"/><path d="m150 312 .375 1.938L151 316l2 1-1 2c3.571-1.88 5.547-3.17 7-7h5l.152 3.5c.189 4.297.389 8.592.593 12.888.086 1.857.17 3.715.25 5.572.116 2.674.243 5.347.372 8.02l.101 2.507c.22 4.3.782 7.533 2.532 11.513.303 2.388.303 2.388.379 4.828l.103 2.672.08 2.75c.06 1.818.124 3.636.192 5.453l.072 2.427c-.026 1.883-.026 1.883 1.174 2.87.073 2.186.084 4.375.063 6.563l-.028 3.628L170 390c-9.6.274-18.786-.434-28.296-1.666-6.861-.847-13.74-1.547-20.615-2.28l-3.39-.37-3.036-.327A48.438 48.438 0 0 1 108 384l1.094 2.992 1.406 3.883.723 1.973C113 397.773 113 397.773 113 400h2c1.257 2.906 2 4.796 2 8h2l1 8h2l2 8h2v3h2a528.202 528.202 0 0 1 2.063 6.188l1.16 3.48C132.6 442.572 130.4 446.676 128 452c-29.415-16.406-58.122-37.338-78-65 1.313-1.5 1.313-1.5 3-3h3v-2c5.412-4 5.412-4 8-4v-2l6-2v-2c5.412-4 5.412-4 8-4v-2a95.731 95.731 0 0 1 6-4l1.898-1.195c1.336-.84 2.675-1.674 4.016-2.504 1.42-.886 2.831-1.785 4.234-2.696l2.102-1.355 1.89-1.234c1.943-1.061 3.699-1.576 5.86-2.016v-2c5.75-3 5.75-3 8-3v-2a123.08 123.08 0 0 1 6.875-4.625l1.973-1.273C125.732 335 125.732 335 128 335v-2c1.68-1.29 1.68-1.29 3.875-2.625l2.18-1.352C136 328 136 328 138 328v-2l3.313-1.813c4.419-2.566 6.248-3.824 7.875-8.875L150 312Z" fill="#785F85"/><path d="M289.313 32.563 293 34v2l2 .25c3.325.831 5.973 2.184 8.996 3.762 2.588 1.276 5.244 2.16 8.004 2.988v2l2.54.773c3.775 1.339 7.28 3.028 10.835 4.852l4.262 2.16 2.189 1.114a783.465 783.465 0 0 0 6.319 3.16c7.447 3.689 14.808 7.479 22.085 11.496 2.712 1.474 2.712 1.474 5.446 2.515C368 72 368 72 371 74c1.655.385 3.322.728 5 1v2l2.313.375C381 78 381 78 384 80c-1.728.339-3.458.67-5.188 1l-2.917.563c-2.688.406-5.183.516-7.895.437v2c-2.604.336-5.208.669-7.813 1-.737.095-1.475.19-2.236.29-3.005.38-5.918.71-8.951.71l-1 2-1-1c-2.986-.204-5.293-.316-8.055.918-4.334 1.592-8.754 2.005-13.32 2.582-6.074.774-11.735 1.78-17.625 3.5-3.257.638-6.53 1.137-9.813 1.625l-2.54.406c-14.833 2.235-14.833 2.235-20.487-.308l-2.098-1.66c-2.496-1.917-4.039-3.055-7.062-4.063v-2h-2l-2-3c-2.06-.724-2.06-.724-4-1v-2l-5-2v-2h-3v-2l-2.125-.188C243.973 74.71 242.057 72.659 239 70l-3-1-.312 2c-1.186 7.08-3.005 13.752-5.25 20.563l-.96 2.978c-2.306 7.114-2.306 7.114-3.478 9.459h-2c-.146-4.264-.288-8.529-.427-12.793-.048-1.443-.096-2.885-.146-4.328A766.482 766.482 0 0 1 223 56l8.887-4.395c3.074-1.534 3.074-1.534 5.738-3.23 3.374-1.953 6.581-2.539 10.375-3.375v-2c.594-.23 1.189-.461 1.8-.7 4.61-1.813 9.147-3.71 13.637-5.8 3.778-1.725 7.568-3.369 11.438-4.875l2.617-1.023c4.293-1.03 7.814.399 11.82 1.96Z" fill="#908F8E"/><path d="M269 340h7c-.588 4.841-2.077 8.96-4.063 13.375l-.853 1.941A802.632 802.632 0 0 1 269 360h-2l-.516 1.836c-1.8 6.223-3.98 12.19-6.484 18.164h-2v3l2.957.402 3.856.536 3.832.527C272 385 272 385 275 386c1.728.068 3.458.085 5.188.063l2.73-.028L285 386v2c1.104.09 1.104.09 2.23.184l2.957.253 2.918.247c2.681.293 5.261.743 7.895 1.316-.374 5.802-1.341 9.785-4 15a203.758 203.758 0 0 0-2.059 9.098c-2.193 6.761-7.126 9.557-12.941 12.964-4.526 2.678-8.3 5.162-12 8.938-3.25.75-3.25.75-6 1v2c-2.555 1.727-2.555 1.727-5.875 3.625l-3.305 1.914C252 446 252 446 250 446v2l-2.375 1.063c-3.95 1.97-7.443 4.541-11.031 7.097C221.312 467 221.312 467 218 467v2c-4.833.083-9.237-.047-14-1v-1c1.856-.03 1.856-.03 3.75-.063l2.11-.035c2.173.1 4.053.501 6.14 1.098l.332-2.098c1.353-8.346 2.97-16.62 4.668-24.902l-2.345-.136c-15.698-.934-31.15-2.156-46.655-4.864v-2l2.379-.367c3.213-.513 6.418-1.061 9.621-1.633l2.285-.402c2.056-.403 2.056-.403 4.715-1.598 1.297-2.49 1.297-2.49 2-5l3-1c.733-2.015.733-2.015 1-4 4.293-1.263 6.878-.63 11 1v3c1.436.196 2.874.381 4.313.563l2.425.316c2.43.269 2.43.269 5.262-.879v-3h2v-3h2l1-5h2l1-3h2v-3h2l1-5h2l.516-1.934.734-2.503.703-2.497C238 393 238 393 240.035 392.328L242 392c1.649-2.516 2.373-5.075 3-8h2l.86-2.207c2.562-6.276 5.725-12.205 9.265-17.98 2.342-3.83 4.179-7.649 5.875-11.813 1.295-2.686 2.647-5.343 4-8 .668-1.333 1.335-2.666 2-4Z" fill="#87748D"/><path d="m407 241 1 3-2.172 2.145c-2.774 2.775-5.435 5.642-8.078 8.542l-2.64 2.887c-2.115 2.228-2.115 2.228-3.11 4.426h-2l-.75 1.688c-1.48 2.736-3.185 4.989-5.25 7.312h-2l-.316 1.691c-.816 2.754-2.092 4.819-3.622 7.247C376 283.216 374.348 286.363 373 290h-2v4h-2l-1 4h-2l-.309 1.61c-.894 3.092-2.29 5.775-3.753 8.64l-1.66 3.266L359 314h-2l-.373 1.777c-.63 2.235-1.438 3.824-2.658 5.79l-1.207 1.97-1.262 2.026c-3.168 5.009-3.168 5.009-5.5 10.437h-2v4c-5.927.335-10.593-.594-16.27-2.277-2.498-.662-4.786-1.012-7.355-1.223-3.05-.26-5.645-.835-8.523-1.867-5.734-1.975-11.574-3.43-17.45-4.914-.813-.21-1.626-.418-2.464-.633l-2.223-.561C288 328 288 328 287 327a103.65 103.65 0 0 0-4.563-1.063l-2.503-.535L278 325c.557-3.344 1.352-6.033 3-9h2l.078-1.828c.464-6.534.464-6.534 2.672-9.61C289.167 302.19 291.818 301 296 301v-2h3v-2l5-1v-2h5v-2h3v-2h2v-2h4v-2c6.625-3 6.625-3 10-3v-3l2.082-.805 2.73-1.07 2.708-1.055c2.657-1.058 2.657-1.058 5.48-3.07h3v-2l8-2v-3l8-1v-2c2.905-2.042 4.401-3 8-3v-3c2.906-1.257 4.796-2 8-2v-2c3.27-3.27 6.513-3.569 11-4v-2l3.25-1.25c3.29-1.396 5.342-3.075 7.75-5.75 3.069-1.534 5.7-.55 9 0Z" fill="#87758D"/><path d="M341 86c5.625-.25 5.625-.25 9 2v4h2v4h2a154.646 154.646 0 0 1 7.168 15.996c.667 1.966.667 1.966 1.832 3.004.04 2.333.042 4.667 0 7h-2l-.516 1.688c-1.717 5.408-3.837 10.293-6.484 15.312h-2v2h-2l-.375 1.563c-.811 3.164-1.72 6.298-2.625 9.437 4.023 3.47 4.023 3.47 9 5l.75-2.125c1.41-3.245 3.229-5.978 5.25-8.875l5 1 1 3 2.75.875c3.81 1.319 5.592 3.154 8.25 6.125l-3 6h-2l-2 5h-2l-.563 2c-2.074 4.33-5.222 7.472-8.437 11a663.746 663.746 0 0 0-3.438 4L355 188c-4.348-.826-6.657-3.154-10-6l-3-1-.34 1.95c-.87 4.019-2.044 7.924-3.223 11.863l-.708 2.388c-.575 1.934-1.152 3.866-1.729 5.799h-2l-.438 3.125c-.479 3.3-1 6.588-1.562 9.875l-3 1c-.733 2.015-.733 2.015-1 4l-6 1v-3h-5v-3h-2l-2.25-2.313c-2.777-2.713-5.224-4.129-8.75-5.687v-2l-1.875-.875C300 204 300 204 298 202c-2.433-.462-2.433-.462-5.125-.625l-2.758-.227L288 201v-1h10l.41-2.188c1.123-5.351 2.69-10.632 4.777-15.687 1.051-2.369 1.051-2.369.813-6.125h3l.313-2.063c.645-2.757 1.57-5.177 2.722-7.757 1.263-2.854 2.456-5.735 3.652-8.618l1.325-3.183L316 152h3l1-8h3l.148-1.977c.424-4.956 1.009-9.353 2.852-14.023h2l.875-3.688c.803-3.23 1.788-6.255 3.125-9.312h2v-3h2l.422-1.746c2-7.795 5.145-14.994 8.578-22.254h-5l1-2Z" fill="#C19A79"/><path d="M200 190c14.56.574 28.934 2.511 43.375 4.375 3.604.461 7.208.921 10.813 1.379 2.382.304 4.764.61 7.146.92 6.007.774 12.009 1.474 18.038 2.046l3.587.356c2.24.22 4.482.421 6.725.602 6.35.635 9.976 1.505 14.316 6.322v2l1.766.348c2.4.7 3.963 1.634 5.984 3.09l1.86 1.308L315 214v2h2v3h4l-1 3c-3.908.736-7.817 1.47-11.727 2.2-2.538.473-5.074.955-7.609 1.445l-2.851.542c-.82.16-1.638.318-2.481.481C293 227 293 227 288 227v-10l-2.656-.148c-15.43-.91-30.897-1.907-46.219-3.977-5.753-.769-11.326-1.126-17.125-.875l-1 6h-12l-.375 5.875c-.618 8.738-1.61 17.426-2.625 26.125l2 1h-2v2h-2l-.375 1.813C203 257 203 257 201 260c-.597-2.763-1-5.16-1-8l-3.25 1.375c-3.563 1.352-6.984 2.061-10.75 2.625-7.033 1.066-14.823 2.823-20 8l6-24h2l.375-3.688c.419-3.41 1.319-6.128 2.625-9.312.381-2.326.725-4.66 1-7 3.175-1.058 5.643-1.202 8.98-1.316l3.526-.127 3.681-.12 3.717-.13c3.032-.107 6.064-.209 9.096-.307l-1-2c-.134-2.672-.043-5.323 0-8h-2l-1-8h-2l-1-10Z" fill="#8C6952"/><path d="m460 181 5 1 2 6h2c.677 1.245 1.34 2.496 2 3.75l1.125 2.11C473 196 473 196 473 200c-1.504 1.64-1.504 1.64-3.563 3.25-3.597 2.966-6.571 6.09-9.582 9.637-3.913 4.457-8.225 8.547-12.468 12.687-2.106 2.068-3.735 3.948-5.387 6.426h-2l-.75 1.875c-1.487 2.529-2.687 2.843-5.25 4.125a88.354 88.354 0 0 0-2 4c-5.367 6.743-5.367 6.743-8 9h-2v2c-1.313 1.438-1.313 1.438-3 3l-1.563 1.688C416 259 416 259 414 259l-1 3h-2c-.26.575-.52 1.15-.79 1.742-1.3 2.426-2.779 4.309-4.585 6.383l-1.773 2.07c-1.859 1.812-3.48 2.792-5.852 3.805v2h-2l-.805 2.137c-1.26 3.019-2.735 5.815-4.32 8.675l-1.633 2.958L388 294h-2l-.813 2.063c-1.348 3.334-2.762 6.634-4.187 9.937h-2l-.25 2.188C378 311 378 311 376.3 313.098c-3.033 3.826-5.395 7.946-7.863 12.152-4.084 6.88-8.235 13.707-12.562 20.438l-1.397 2.194c-3.237 4.997-3.237 4.997-5.478 6.118l-1-5h-2c-2.914-4.778-3.199-7.551-2-13h2l.219-2.055c1.023-3.857 3.065-6.811 5.281-10.07 3.213-4.691 3.213-4.691 5.5-9.875h2l.688-2.938c1.334-4.754 3.804-8.84 6.312-13.062h2l1-4h2v-4h2l.625-2.375c1.57-4.137 3.688-7.62 6.035-11.355 1.469-2.307 1.469-2.307 2.34-5.27h2l.75-1.688c1.48-2.736 3.185-4.989 5.25-7.312h2l.75-1.688c1.48-2.736 3.185-4.989 5.25-7.312h2l.75-1.688c1.48-2.736 3.185-4.989 5.25-7.312h2v-2h2v-2l2-1c1.116-1.65 1.116-1.65 2.125-3.563L416 232h2l.676-1.645c1.74-3.095 4.077-5.492 6.512-8.042 4.129-4.393 7.927-8.878 11.472-13.766L438 207h2l.688-2.25c1.577-3.305 3.453-4.504 6.312-6.75a744.352 744.352 0 0 0 4-6h2l.938-1.875L456 186h2v-2h2v-3Z" fill="#1F0B25"/><path d="M386 80c1.62 1.62 1.222 3.448 1.314 5.69l.126 3.06.119 3.367.128 3.505c.47 14.166.422 28.331.375 42.503-.005 2.724-.01 5.448-.013 8.172-.011 6.568-.028 13.135-.049 19.703l-2.402.867c-2.721.928-2.721.928-4.16 3.258L380 172h-4v2c-4.353 4-4.353 4-8 4v2c-5.412 4-5.412 4-8 4l-2 4-1-3c1.477-2.234 1.477-2.234 3.625-4.75 2.56-3.053 5.015-6.076 7.25-9.375L370 168h2l2-5h2l2-6c-3.014-3.361-5.973-5.03-10-7l-1.625-1.75L365 147c-1.994.041-1.994.041-4 1-1.565 2.067-1.565 2.067-2.75 4.563l-1.297 2.503L356 157c-4.752-.432-6.92-1.328-10-5 1.041-3.866 2.037-7.495 4-11h2v-2h2l.309-2.105c.808-3.386 2.158-6.118 3.753-9.208l1.66-3.238L361 122h2c-.399-4.886-1.31-7.86-3.95-12.102-1.895-3.425-2.915-7.166-4.05-10.898l-1-3h-2v-4h-2l-1-6c3.713-1.238 7.313-1.356 11.188-1.563l2.271-.13c1.847-.106 3.694-.207 5.541-.307v-2c2.062-.338 4.124-.67 6.188-1l3.48-.563c2.845-.373 5.47-.604 8.332-.437Z" fill="#727374"/><path d="M157 130c5.8.906 11.154 1.944 16.617 4.156 4.508 1.597 9.197 2.598 13.84 3.727 5.031 1.225 10.037 2.543 15.043 3.867l2.556.675L211 144c-.648 6.096-1.783 11.925-3.25 17.875l-.582 2.527c-1.132 4.608-2.595 8.687-4.765 12.915l-1.364 2.674L200 182c-6.818.025-13.635.043-20.453.055-2.321.005-4.642.012-6.964.02-3.328.013-6.657.018-9.985.023l-3.166.015h-2.912l-2.577.007C152 182 152 182 151 181c-.542-4.316-.76-8.658-1-13l-.168-3.004c-.348-12.178 2.575-23.78 7.168-34.996Z" fill="#92667D"/><path d="M281 32c.065 11.613-.098 23.212-.372 34.822-.066 2.834-.125 5.668-.185 8.502l-.127 5.465-.05 2.538c-.11 4.317-.424 8.421-1.266 12.673-3.297-.658-5.841-1.894-8.75-3.563l-2.422-1.378c-.603-.35-1.206-.7-1.828-1.059v-2h-2l-2-3c-2.06-.724-2.06-.724-4-1v-2l-5-2v-2h-3v-2l-2.125-.188C243.973 74.71 242.057 72.659 239 70l-3-1-.312 2c-1.186 7.08-3.005 13.752-5.25 20.563l-.96 2.978c-2.306 7.114-2.306 7.114-3.478 9.459h-2c-.146-4.264-.288-8.529-.427-12.793-.048-1.443-.096-2.885-.146-4.328A766.482 766.482 0 0 1 223 56l8.887-4.395c3.074-1.534 3.074-1.534 5.738-3.23 3.374-1.953 6.581-2.539 10.375-3.375v-2c.594-.23 1.189-.461 1.8-.7 4.67-1.836 9.27-3.76 13.825-5.862C276.499 30.556 276.499 30.556 281 32Z" fill="#717273"/><path d="M237 98c5.576.917 11.017 1.95 16.438 3.563 5.068 1.455 9.97 1.942 15.226 2.226C271 104 271 104 272 105c.262 1.952.46 3.913.625 5.875.095 1.07.19 2.14.29 3.242C273 117 273 117 272 120h6l-.25-2.313c.25-2.687.25-2.687 2.125-4.5C282 112 282 112 284 112v-3c4.313.715 8.622 1.448 12.93 2.191A610880158.107 610880158.107 0 0 1 319 115c-.555 4.04-1.2 7.998-2 12l-13 2c-1.044 3.133-.934 3.99 0 7h-3l-2-4-2.5 2.563c-1.975 1.669-3.006 2.403-5.61 2.582-2.813-.355-5.344-.872-7.89-2.145v-4l-1.375 1.5C280 134 280 134 278 134l-.73 2.277c-1.453 3.116-2.822 4.286-5.582 6.286l-2.434 1.804L267 146c-3.658 2.77-3.658 2.77-6.563 6.25L259 154h-4v2l-4 1-1.25-2.375c-1.79-2.684-2.8-3.506-5.75-4.625l1-5 8-1v3h3c-.113-1.98-.241-3.959-.375-5.938-.07-1.102-.14-2.204-.21-3.34-.138-.898-.274-1.796-.415-2.722l-2-1v-2l-1-1.938C251 128 251 128 251 125l-3.25.188c-3.978-.2-5.034-.424-7.75-3.188-.39-2.48-.39-2.48-.25-5.188l.11-2.73L240 112l-6 1c.445-5.273 1.084-10.018 3-15Z" fill="#EBC9B0"/><path d="m181.742 436.84 2.944.262c2.032.181 4.064.366 6.095.552 3.107.285 6.213.561 9.32.836l5.954.537 2.8.25c4.105.38 8.121.782 12.145 1.723.339 6.171-.917 11.493-2.5 17.438l-.723 2.794c-.585 2.258-1.177 4.514-1.777 6.768-32.512-.512-32.512-.512-39-7a73.57 73.57 0 0 0-4.164-.613l-2.629-.338-2.832-.361c-7.876-1.055-15.273-2.568-22.91-4.77-5.418-1.436-10.911-2.206-16.465-2.918.747-5.046 1.387-8.215 5-12 3.59-1.253 7.234-1.585 11-2l3.89-.555c11.44-1.6 22.347-1.67 33.852-.605Z" fill="#1E0A29"/><path d="M104 384h3v4h2c.67 1.623 1.337 3.249 2 4.875l1.125 2.742C113 398 113 398 113 400h2c1.257 2.906 2 4.796 2 8h2l1 8h2l2 8h2v3h2a528.202 528.202 0 0 1 2.063 6.188l1.16 3.48C132.6 442.572 130.4 446.676 128 452c-18.892-10.537-36.208-22.106-52-37l-2.168-2.043c-3.603-3.488-3.603-3.488-4.832-4.957v-2h3v-2l1.938-.875c2.214-.953 2.214-.953 3.062-3.125 2.327-.69 4.66-1.355 7-2 3.248-1.722 3.248-1.722 4-5 4.164-3.272 7.962-4.574 13-6 1.71-1.541 1.71-1.541 3-3Z" fill="#90759E"/><path d="M300 392c-1.07 5.988-2.395 11.913-3.875 17.813l-.93 3.769c-2.465 7.048-7.04 9.873-13.195 13.48-4.526 2.678-8.3 5.162-12 8.938-3.25.75-3.25.75-6 1v2c-2.555 1.727-2.555 1.727-5.875 3.625l-3.305 1.914C252 446 252 446 250 446v2l-2.375 1.063c-3.95 1.97-7.443 4.541-11.031 7.097C221.312 467 221.312 467 218 467v2c-4.833.083-9.237-.047-14-1v-1c1.856-.03 1.856-.03 3.75-.063l2.11-.035c2.173.1 4.053.501 6.14 1.098l.332-2.098c1.353-8.346 2.97-16.62 4.668-24.902h-5v-1l1.871-.227c6.18-.96 10.307-2.791 15.316-6.53C235 432 235 432 237 432v-2c7.429-4.429 7.429-4.429 11-5v-2c3.534-2.63 6.94-4.376 11-6a250 250 0 0 0 6-4c4.714-3 4.714-3 7-3v-2c5.75-3 5.75-3 8-3v-2c2.905-2.042 4.401-3 8-3v-2c5.75-3 5.75-3 8-3v-2c2-1 2-1 4-1Z" fill="#583F66"/><path d="M200 192h2l.75 2.375c1.008 2.695 1.008 2.695 3.125 3.875 2.029.716 4.022 1.3 6.125 1.75v2l4 2v3l4 1v2l4 1-2 1c-.658 3.03-.658 3.03-1 6h-12l-.375 5.875c-.618 8.738-1.61 17.426-2.625 26.125l2 1h-2v2h-2l-.375 1.813C203 257 203 257 201 260c-.597-2.763-1-5.16-1-8l-3.25 1.375c-3.563 1.352-6.984 2.061-10.75 2.625-7.033 1.066-14.823 2.823-20 8l6-24h2l.375-3.688c.419-3.41 1.319-6.128 2.625-9.312.381-2.326.725-4.66 1-7 3.175-1.058 5.643-1.202 8.98-1.316l3.526-.127 3.681-.12 3.717-.13c3.032-.107 6.064-.209 9.096-.307l-1-2c-.134-2.672-.043-5.323 0-8h-2l-1-8h-2l-1-8Z" fill="#92657D"/><path d="M209 219c2.167-.028 4.333-.047 6.5-.063l3.656-.035c4.786.038 9.546.387 14.32.705 8.168.527 16.343.74 24.524.956l4.695.13c3.768.105 7.537.207 11.305.307v2a1014.401 1014.401 0 0 1-6.75 3l-1.922.867C261.916 228.36 259.792 229 256 229v2c-2.709 1.354-5.01 1.065-8 1v2c-3.517 1.97-7.134 2.905-11 4-1.421.53-2.838 1.072-4.25 1.625C229 241 229 241 226 241v2c-6.76 3.424-12.4 5.626-20 6-.169-6.852.455-13.296 1.5-20.063l.434-2.912c.35-2.342.705-4.684 1.066-7.025Z" fill="#C3BEBF"/><path d="M363 120h2v2h2l1 6h2c1.257 2.906 2 4.796 2 8h2c2.152 3.228 2.2 4.284 2 8h2l.805 1.863 1.07 2.45 1.055 2.425c1.096 2.458 1.096 2.458 3.07 5.262v4h2l1 6-1.813.75c-2.321 1.122-2.321 1.122-3.687 3.375L380 172h-4v2c-4.353 4-4.353 4-8 4v2c-5.412 4-5.412 4-8 4l-2 4-1-3c1.477-2.234 1.477-2.234 3.625-4.75 2.56-3.053 5.015-6.076 7.25-9.375L370 168h2l2-5h2l2-6c-3.014-3.361-5.973-5.03-10-7l-1.625-1.75L365 147c-1.994.041-1.994.041-4 1-1.565 2.067-1.565 2.067-2.75 4.563l-1.297 2.503L356 157c-4.752-.432-6.92-1.328-10-5 1.041-3.866 2.037-7.495 4-11h2v-2h2l.309-2.105c.808-3.386 2.158-6.118 3.753-9.208l1.66-3.238L361 122h2v-2Z" fill="#4C4944"/><path d="m362 146 5 1 1 3 2.75.875c3.81 1.319 5.592 3.154 8.25 6.125l-3 6h-2l-2 5h-2l-.563 2c-2.074 4.33-5.222 7.472-8.437 11a663.746 663.746 0 0 0-3.438 4L355 188c-3.868-.81-6.103-2.264-9-5v-3h-5c.313-3.375.313-3.375 1-7l3-2 1-3h2c1.523-2.937 2.801-5.917 4-9h2v-2h2l.75-2.125c1.41-3.245 3.229-5.978 5.25-8.875Z" fill="#D9BEA7"/><path d="M284 109c4.313.715 8.622 1.448 12.93 2.191l3.906.674A751953.634 751953.634 0 0 1 319 115c-.555 4.04-1.2 7.998-2 12l-13 2c-1.044 3.133-.934 3.99 0 7h-3l-2-4-2.5 2.563c-1.975 1.669-3.006 2.403-5.61 2.582-2.813-.355-5.344-.872-7.89-2.145-.399-3.625-.51-7.232-.656-10.875L282 121l-2-1h3l-.063-3.813c-.046-2.828.146-4.436 1.063-7.187Z" fill="#A28A71"/><path d="M237 98c5.648.929 11.18 1.989 16.688 3.563 4.454 1.267 8.705 2.002 13.312 2.437.081 1.916.14 3.833.188 5.75l.105 3.234c-.324 3.33-.945 4.674-3.293 7.016h-2l-.75 2.063c-1.492 3.506-3.318 6.653-5.25 9.937l-4-1-1-6-3.25.188c-3.978-.2-5.034-.424-7.75-3.188-.39-2.48-.39-2.48-.25-5.188l.11-2.73L240 112l-6 1c.445-5.273 1.084-10.018 3-15Z" fill="#B89C86"/><path d="M303 332c1.418.115 2.834.243 4.25.375.789.07 1.578.14 2.39.21 2.472.435 4.13 1.298 6.36 2.415 1.76.373 3.533.68 5.313.938 7.28 1.124 14.472 2.583 21.687 4.062l3 9h2l3 6c-11.927.29-23.517-2.96-34.884-6.286-4.025-1.173-7.953-2.123-12.116-2.714-.953-4.763-1.083-9.167-1-14Z" fill="#563E61"/><path d="M226.371 210.852c5.64.058 11.113.74 16.691 1.523 9.868 1.317 19.723 2.26 29.651 2.978 5.137.375 10.2.834 15.287 1.647v10l-4-1v-2l-10-1v-2c-.868.01-1.735.02-2.63.032-20.889.216-41.543-.374-62.37-2.032v-1h12v-6c1.583-1.583 3.178-1.146 5.371-1.148Z" fill="#BC9D88"/><path d="M301 332h2c1.702 14.597 1.702 14.597-2 22h-2l-1.125 3.688c-3.44 10.29-8.55 19.89-13.875 29.312-6.152-.586-6.152-.586-8-1l-1-2c.71-2.012.71-2.012 1.879-4.473l1.295-2.728 1.389-2.861c.43-.918.862-1.835 1.306-2.78 2.584-5.385 5.478-10.263 8.87-15.173 1.616-2.544 2.402-5.105 3.261-7.985 1.29-2.835 2.706-5.603 4.125-8.375l1.129-2.23c.912-1.8 1.828-3.598 2.746-5.395Z" fill="#27112D"/><path d="M283 112v11l.105 1.938c.223 5.585.223 5.585-1.48 8.062-1.625 1-1.625 1-3.625 1l-.73 2.277c-1.453 3.116-2.822 4.286-5.582 6.286l-2.434 1.804L267 146c-3.658 2.77-3.658 2.77-6.563 6.25L259 154h-4v2l-4 1a651.927 651.927 0 0 1-2-3.875l-1.125-2.18C247 149 247 149 247 147l13 1 2-5c1.262-2.38 2.633-4.676 4-7h2l.375-1.938L269 132l2-1a502.64 502.64 0 0 0 2-6c1.5-2.875 1.5-2.875 3-5h2l-.25-2.313c.25-2.687.25-2.687 2.188-4.5C282 112 282 112 283 112Z" fill="#C49F82"/><path d="M269 340h7c-.588 4.841-2.077 8.96-4.063 13.375l-.853 1.941A802.632 802.632 0 0 1 269 360h-2l-.516 1.836c-1.8 6.223-3.98 12.19-6.484 18.164h-3l-1 4-8-2c1.421-4.863 3.578-9.03 6.125-13.375 4.63-8.05 8.794-16.286 12.875-24.625.665-1.334 1.33-2.668 2-4Z" fill="#D9C4D0"/><path d="M198 419a77.776 77.776 0 0 1 10 2v3c1.457.195 2.916.38 4.375.563l2.46.316c2.214.303 2.214.303 4.165-.879l-1 4h-8l-2 9h-16v1c-2.584-.141-5.167-.288-7.75-.438l-2.21-.119c-3.467-.204-6.693-.528-10.04-1.443v-2l2.379-.367c3.213-.513 6.418-1.061 9.621-1.633l2.285-.402c2.056-.403 2.056-.403 4.715-1.598 1.297-2.49 1.297-2.49 2-5l3-1c.662-1.98.662-1.98 1-4l1-1Z" fill="#85718E"/><path d="M285 110c7.833.613 15.46 1.66 23.188 3.063l3.173.564c2.547.454 5.093.911 7.639 1.373l-1 7h-2v3c-6.234.307-11.169-.418-17.137-2.2-4.565-1.276-9.19-2.011-13.863-2.8v-10Z" fill="#544F45"/><path d="M129 452c7.387.162 14.115 1.442 21.188 3.438 7.027 1.978 13.843 3.294 21.117 3.929 4.484.403 8.423 1.288 12.695 2.633v1h-5v8c-6.081-.561-11.384-1.884-17.125-3.938l-2.565-.904c-10.372-3.76-20.348-8.436-30.31-13.158v-1Z" fill="#553D63"/><path d="M224 58h2a349.422 349.422 0 0 1 4 5l3 2v3h2c.597 7.68-1.586 14.117-3.938 21.375l-1.13 3.598c-2.727 8.617-2.727 8.617-3.932 11.027h-2V58Z" fill="#474745"/><path d="M342 181c3.327.384 4.343 1.307 6.938 3.625 2.777 2.726 2.777 2.726 5.75 2.063L357 186l3 2-1 4-2.25.227c-3.467.975-4.516 2.365-6.75 5.148-2.14 2.65-3.747 4.474-6.688 6.227-2.62 1.243-2.62 1.243-3.312 4.398h-4l-1 2c.373-10.527 3.076-19.304 7-29Z" fill="#906D4E"/><path d="M200 192h2l.75 2.375c1.008 2.695 1.008 2.695 3.125 3.875 2.029.716 4.022 1.3 6.125 1.75v2l4 2v3l4 1v2l4 1-2 1c-.658 3.03-.658 3.03-1 6h-12l-1 14h-1l.035-3.246.028-4.191.025-2.143c.009-1.807-.036-3.614-.088-5.42l-1-1c-.141-2.67-.042-5.324 0-8h-2l-1-8h-2l-1-8Z" fill="#8C7384"/><path d="M237 98c9.903 1.556 19.384 4.228 29 7-.875 6.875-.875 6.875-2 8-9.633.087-18.792-2.488-28-5l1-10Z" fill="#51493D"/><path d="M385 88h1l.076 2.076c.117 3.142.24 6.283.361 9.424l.12 3.266.127 3.203.11 2.92c.151 2.278.406 4.55.72 6.81.656 5.047.61 10.063.584 15.145l-.005 3.06c-.005 3.198-.018 6.397-.03 9.596-.006 2.18-.01 4.36-.014 6.54-.011 5.32-.028 10.64-.049 15.96-2-3.75-2-3.75-2-6h-2l-2.148-5.176c-.92-2.09-.92-2.09-2.852-4.824.375-2.688.375-2.688 1-5l4-1-.007-1.768c-.022-6.1-.037-12.2-.048-18.3-.005-2.274-.012-4.547-.02-6.82-.013-3.277-.018-6.554-.023-9.83l-.015-3.057c0-5.506.297-10.778 1.113-16.225Z" fill="#6E7272"/><path d="M275 162c2.962.613 4.38 1.254 7 3 .73 2.164.73 2.164 1.188 4.625l.48 2.477L284 174l-2.25-.688c-2.793-.619-2.793-.619-4.875 1.125L275 176h-3v2c-9.674-.584-19.34-1.223-29-2l1-3 28-1v-2l3-2c.25-3.084.25-3.084 0-6Z" fill="#A18064"/><path d="M334 203h2v5h16v5h8v1h-8v2l-3.14.148-4.11.227c-.682.03-1.364.062-2.066.094-3.73.217-6.439.694-9.684 2.531-2.25-.375-2.25-.375-4-1l1-2h2l-.125-2.563c.14-3.86.953-6.774 2.125-10.437Z" fill="#90778C"/><path d="M198 419a77.776 77.776 0 0 1 10 2v3c1.457.195 2.916.38 4.375.563l2.46.316c2.214.303 2.214.303 4.165-.879l-1 4-3.648.402-4.727.536-2.406.263c-4.242.403-4.242.403-8.219 1.799-2 .043-4 .04-6 0h-3c1.313-2.938 1.313-2.938 3-6l3-1c.662-1.98.662-1.98 1-4l1-1Z" fill="#776082"/><path d="M270 135c2.188.313 2.188.313 4 1v2h-2v2l-3 2-1.375 2.313c-1.85 3.059-4.039 5.233-6.625 7.687l-2 2h-4v2l-4 1a651.927 651.927 0 0 1-2-3.875l-1.125-2.18C247 149 247 149 247 147l13 1 2-5c2.438-2.625 2.438-2.625 5-5l1.563-1.875L270 135Z" fill="#BC9A7C"/><path d="M361 122h1c.619 5.815-.753 8.955-3.766 13.914-1.364 2.167-1.364 2.167-2.359 5.086l-.875 2-3 1 1 4 4-4 3 1-1.938.688c-2.334 1.165-2.334 1.165-2.812 3.937L355 152h3l-2 5c-4.752-.432-6.92-1.328-10-5 1.041-3.866 2.037-7.495 4-11h2v-2h2l.309-2.105c.808-3.386 2.158-6.118 3.753-9.208l1.66-3.238L361 122Z" fill="#584E40"/><path d="m209 152 2 2c-.577 6.577-.577 6.577-2 8-.204 3.592-.32 7.182-.426 10.777C208 176 208 176 205.957 177.441L204 178l1.5 1.313C207 181 207 181 207 184l3 1-2 4 3.688-.125c3.53-.013 6.112.525 9.312 2.125v1c-7.221-.418-14.046-.955-21-3 .281-6.479 1.514-11.82 3.879-17.84 2.213-6.237 3.603-12.725 5.121-19.16Z" fill="#E2BDAD"/><path d="m285 110 11 1v2l4 1v3h-4v2h4v2h8v2c-7.897.484-15.335-1.323-23-3v-10Z" fill="#504334"/><path d="m348 186 3.313.5c3.562.567 3.562.567 6.687.5l2 1-1 4-2.25.227c-3.467.975-4.516 2.365-6.75 5.148-2.14 2.65-3.747 4.474-6.688 6.227-2.62 1.243-2.62 1.243-3.312 4.398h-4l-1 2c-.305-2.254-.305-2.254 0-5 2.117-2.027 2.117-2.027 4.875-3.938 4.275-2.965 5.94-4.946 7.125-10.062v-3l1-2Z" fill="#8A655B"/><path d="M236 69c4.352.825 6.626 3.188 10 6 2.217.853 2.217.853 4 1v2h3l-1 2-3-1v-2h-3l-1 2-1-2-4 1-1-2-.438 2.25c-.464 2.27-.98 4.508-1.562 6.75l2 1-1 2c-3.063.625-3.063.625-6 1-1.29-2.58-.792-3.403-.004-6.133l.693-2.441.749-2.551A1095.113 1095.113 0 0 1 236 69Z" fill="#DAC4AD"/><path d="M241 113c4.585.45 8.679 1.42 13 3-.75 5.75-.75 5.75-3 8-2.094.266-2.094.266-4.5.25l-2.406.016C242 124 242 124 240 122c-.328-2.715-.13-5.252 0-8l1-1Z" fill="#160A07"/><path d="M285 125c1.792.309 3.584.622 5.375.938l3.023.527C296 127 296 127 298 128c-.345 3.101-.848 4.8-2.75 7.313C293 137 293 137 290.5 137.438c-3.178-.557-4.475-.868-6.5-3.438-.033-3.071.42-5.99 1-9Z" fill="#0F0A0C"/><path d="m256 351 6 1c-.286 6.569-2.7 11.988-7 17-3.375.625-3.375.625-6 0-.597-2.763-1-5.16-1-8l2.938.063c2.937.293 2.937.293 4.062-1.063.232-1.515.412-3.038.563-4.563l.253-2.503L256 351Z" fill="#4E363D"/><path d="m276 326 7 1-1 9h-2l-1 5-7-1c-.688-1.813-.688-1.813-1-4l3-3c.744-2.31 1.422-4.643 2-7Z" fill="#210924"/><path d="M269 340h7c-.588 4.841-2.077 8.96-4.063 13.375l-.853 1.941A802.632 802.632 0 0 1 269 360c-1.933-3.53-2.264-5.952-2-10l1-2h-2l-1 4-1-2c.996-2.383.996-2.383 2.438-5.125l1.433-2.758L269 340Z" fill="#D0B9C8"/><path d="M388 108c8.786-.143 8.786-.143 12 2v2l-5-1v-2h-5l1 34h1v18h-2c-.83-6.772-1.292-13.496-1.563-20.313l-.128-3.136c-.374-9.853-.407-19.693-.309-29.551Z" fill="#DCD7D8"/><path d="M237 98a441511282.936 441511282.936 0 0 0 8.3 1.465C248 100 248 100 251 101v2l-3 1v2l-4 1 4 2c-1.437.027-2.875.046-4.313.063l-2.425.035C239 109 239 109 236 108l1-10Z" fill="#463E33"/><path d="M224.004 210.867c5.426.017 10.628.338 15.996 1.133v1h-16v4h17v2h-32v-1h12v-6c1-1 1-1 3.004-1.133Z" fill="#AC9182"/><path d="M228 96h20v4c-7.625-.875-7.625-.875-11-2l-1 4v-3h-2l-.125 1.875L233 103a252.656 252.656 0 0 1-6 2c-1.873 1.993-1.873 1.993-3 4v-5h2l2-8Z" fill="#DDBEAD"/><path d="M316 122h1v5l-13 2c-1.044 3.133-.934 3.99 0 7-3 0-3 0-4.688-1.625-1.653-2.992-1.605-5.003-1.312-8.375l1-2 17 1v-3Z" fill="#CFB99F"/><path d="M385 88h1c1.214 21.331 1.103 42.643 1 64h-1l-.076-2.81c-.096-3.475-.195-6.949-.296-10.422-.043-1.498-.085-2.995-.125-4.493-.059-2.164-.122-4.33-.187-6.494l-.11-3.935c-.214-4-.69-7.876-1.206-11.846-.122-2.67-.143-5.328-.125-8l.006-2.105c.04-4.717.344-9.247 1.119-13.895Z" fill="#646464"/><path d="m224 84 3 4 2-4 1 2 2-1c-1.681 6.487-3.53 12.768-6 19h-2V84Z" fill="#665D54"/><path d="M266 348h2c.473 7.886.18 13.208-4 20l-2-2c.375-3.125.375-3.125 1-6h-2c-.25-2.25-.25-2.25 0-5 1.938-2.125 1.938-2.125 4-4l1-3Z" fill="#DCC3D5"/><path d="M256 118h6c-1.298 5.299-3.15 9.345-6 14l-4-1-1-6h-7v-1l8-1v2h2l1 2 1-9Z" fill="#BD9B82"/><path d="M196 467c7.626-.458 14.603 1.255 22 3l-1.938.875c-2.214.953-2.214.953-3.062 3.125l-3-1-1-2-1 3v-2l-3.875.125c-2.18.07-2.18.07-4.125-.125-2-2-2-2-4-5Zm16 7 2 2-3-1 1-1Z" fill="#E0D2D6"/><path d="M247 147c1.417.142 2.834.289 4.25.438l2.39.246c2.184.292 4.237.737 6.36 1.316l-1 3c-2.063.688-2.063.688-4 1v3l-4 1a651.927 651.927 0 0 1-2-3.875l-1.125-2.18C247 149 247 149 247 147Z" fill="#8E6D52"/><path d="M129 452c7.242.35 13.344 1.056 20 4v5c-4.714-.65-8.577-2.516-12.813-4.563l-2.1-.998c-1.697-.808-3.393-1.623-5.087-2.439v-1Z" fill="#D4C2CF"/><path d="M158 288c2.804 4.756 2.67 9.626 2 15-1.916 2.874-3.023 3.674-6.25 4.75L152 308v-4h2l-.188-2.5c.266-4.947 1.987-9.098 4.188-13.5Z" fill="#785663"/><path d="M255 370c1.231 2.463 1.072 4.28 1 7l3-1-2 8-9-2c1.361-5.198 3.467-8.095 7-12Z" fill="#E6D3E4"/><path d="m149 456 11 2v6c-2.17.955-3.563 1.144-5.824.398-1.744-.757-3.462-1.574-5.176-2.398v-6Z" fill="#897492"/><path d="m208 250-2 1v2h-2l-.375 1.813C203 257 203 257 201 260c-.597-2.763-1-5.16-1-8l-3.313 1.438c-5.122 1.95-10.253 2.272-15.687 2.562 2.872-2.872 6.282-3.243 10.125-4.125l2.227-.55c4.997-1.17 9.518-1.5 14.648-1.325Z" fill="#754E61"/><path d="m264 97-1 3 1 3c-4.105 1.133-6.76.783-10.813-.438l-2.957-.87L248 101l4-1v-2c4.327-2.23 7.284-1.925 12-1Z" fill="#C4B2A1"/><path d="M256 192h8l1 2 3 1 1 3c-7.027-.503-14.02-1.042-21-2 3.228-2.152 4.284-2.2 8-2v-2Z" fill="#E4C1AB"/><path d="M301 332h2l1 14-2 1-1.313-1.5c-1.684-1.832-1.684-1.832-4.687-1.5.644-3.012 1.65-5.517 3.063-8.25l1.097-2.14.84-1.61Z" fill="#270F36"/><path d="M224 213a900.72 900.72 0 0 1 7.813-.125c.737-.017 1.475-.034 2.236-.05 3.863-.036 5.66-.019 8.951 2.175-2 2-2 2-5.914 2.195a373.15 373.15 0 0 1-4.711-.07l-2.43-.027c-1.982-.024-3.963-.06-5.945-.098v-4Z" fill="#C19C80"/><path d="m284 109 4 1h-3v13h6l1 3-7-1-1 9 3 1-2 1-2-1c-.399-3.625-.51-7.232-.656-10.875L282 121l-2-1h3l-.063-3.813c-.046-2.828.146-4.436 1.063-7.187Z" fill="#9C8571"/><path d="M274 160h6v3l1.938.813C284 165 284 165 285 168h3c0 3.66-.758 5.139-3 8-2.688.313-2.688.313-5 0l-1-4 5 2c-.229-1.462-.484-2.92-.75-4.375l-.422-2.46c-.638-2.306-.638-2.306-2.719-3.392-1.692-.62-3.399-1.203-5.109-1.773l-1 2v-4Z" fill="#D7B59A"/><path d="m272 316 2 4h3v5l3 1h-4l-.313 3.375L275 333l-3 2 2-8-2 1v-12Z" fill="#4B2E41"/><path d="M272 303c4.019 1.215 7.642 2.432 11 5v4h-11l2-3c-.804-3.163-.804-3.163-2-6Z" fill="#5A364A"/><path d="m290 112 1.938.5c2.108.746 2.108.746 4.062-.5 2.125.938 2.125.938 4 2v3h-4l-1 2-7-1c.875-4.875.875-4.875 2-6Z" fill="#484540"/><path d="M256 82h2v2l5 1 1 3h2v2l4 1-1 2h-4l-1 2-1-7c-1.454.03-1.454.03-2.938.063C257 88 257 88 256 87a99.984 99.984 0 0 1 0-5Z" fill="#D0BDAD"/><path d="m240 47 2 1c-1.662 1.339-3.33 2.671-5 4l-1.938 1.625c-2.567 1.712-5.114 2.497-8.062 3.375l-3 1v14h-1V56l8.887-4.395c3.107-1.542 3.107-1.542 5.883-3.367L240 47Z" fill="#878787"/><path d="m284 386 1 2c2.417.433 2.417.433 5.25.563 3.671.243 7.155.643 10.75 1.437l-1 9c-1-4-1-4 0-7l-1.703.559c-2.68.515-4.412.162-7.047-.497l-2.422-.59L287 391v-2h-3v-3Z" fill="#928092"/><path d="M130 447h2l1 1 2-1c2.378.088 4.753.243 7.125.438l3.883.308L149 448c-1 2-1 2-2.625 2.688-3.25.427-6.163-.132-9.375-.688l2 2-11-1 2-1v-3Z" fill="#16021D"/><path d="M248 361h7c.8 3.287 1.097 4.71 0 8h-6c-.597-2.763-1-5.16-1-8Z" fill="#533748"/><path d="m329 216 3 4h-2l-.598 1.945C328 224 328 224 325.066 224.68l-3.503.195-3.497.242C315 225 315 225 312 223l6.055-1.367c2.152-.538 2.152-.538 3.945-2.633v3l6-1 1-5Z" fill="#AF8888"/><path d="M204 208h2c1 7.625 1 7.625 1 11l-28 1 1-2 24-1v-9Z" fill="#A27A92"/><path d="M244 173h22c-2.48 2.48-3.362 2.29-6.79 2.414l-2.85.117-2.985.094-3.008.117c-2.455.095-4.91.18-7.367.258l1-3Z" fill="#C19F84"/><path d="M301 114c11.522-.369 11.522-.369 17 2v3h-14l3-2-6-2v-1Z" fill="#4E463A"/><path d="m291 372 1 4h3v8c-2.375-.188-2.375-.188-5-1-1.5-2.188-1.5-2.188-2-5 1.375-3.313 1.375-3.313 3-6Z" fill="#D7C5D1"/><path d="M224 220c16.708-.185 16.708-.185 25 1l-1 2-24-1v-2Z" fill="#CBC2B9"/><path d="M286 105c1.482.254 2.96.53 4.438.813l2.496.457L295 107l1 3h4v2c-10.558-.779-10.558-.779-15-3l1-4Z" fill="#D3BAA4"/><path d="M269 340h7c-.498 3.735-.875 5.812-3 9h-2c-2-2-2-2-2.125-5.625L269 340Z" fill="#D8C3D3"/><path d="M153 218h1c.336 2.916.669 5.833 1 8.75.095.825.19 1.65.29 2.5l.273 2.422.253 2.222c.177 2.028.184 4.07.184 6.106l-4-1c-.121-7.077.146-13.972 1-21Z" fill="#E2CCD3"/><path d="m272 435-1 4 2 1-3.25.313c-3.608.661-5.114 1.262-7.75 3.687v-2l-3-1 5-2v-2c5.75-2 5.75-2 8-2Zm-12 9 2 1Z" fill="#D2BFD3"/><path d="M260 432h2v2h-2v2l1.688-1c2.647-1.145 4.453-1.147 7.312-1h3c-2.565 2.565-4.477 2.54-8 3v2c-4.75 1.125-4.75 1.125-7 0v-4h2l1-3Z" fill="#604B6D"/><path d="M469 190c2.797 2.068 3.027 3.144 3.688 6.688L473 200l-5 1c-.91-3.073-1.089-5.801-1-9h2v-2Z" fill="#220F23"/><path d="m267 104 5 1v8l-5 1v-10Z" fill="#DBBEA9"/><path d="M340 89c-3.455 3.178-6.437 3.42-11 4l-3 2-1-3-2-2c2.082-.364 4.165-.716 6.25-1.063l3.516-.597c2.86-.3 4.567-.284 7.234.66Z" fill="#D4C0AB"/><path d="M332 352c6.037.805 12.013 1.885 18 3v1h-6v2l-10-1 2-2-4-1v-2Z" fill="#CAB8C4"/><path d="M330 212h2v4l-3 1c-.733 2.015-.733 2.015-1 4l-6 1-1-5 1.715-.332 2.223-.48 2.214-.458L329 215l1-3Z" fill="#BE988B"/><path d="M264 215c2.688.142 5.375.289 8.063.438l2.279.119c4.605.259 9.102.723 13.658 1.443v1c-1.77.027-3.542.046-5.313.063l-2.988.035C277 218 277 218 274 217v3l-7-1 1-2-4-2Z" fill="#B28F76"/><path d="M334 203h2c.327 6.13.394 10.627-3 16l-4-1 1-2h2l-.125-2.563c.14-3.86.953-6.774 2.125-10.437Z" fill="#9F7874"/><path d="M151 160h1l1 16 4 1-1 4h-5v-21Z" fill="#866475"/><path d="M273 173v2c-3.668 2.445-5.515 2.238-9.875 2.188l-3.68-.02c-2.943-.144-5.586-.489-8.445-1.168v-1a6977.7 6977.7 0 0 1 9.313-1c.88-.095 1.762-.19 2.67-.29l2.568-.273 2.364-.253C270 173 270 173 273 173Z" fill="#88674C"/><path d="m237 110 1 2h2v8l-2-1v-3h-2v2h-2v-2h-2l1-5 1 2 3-3Z" fill="#D9B8A4"/><path d="m289 359 5 2c-.875 3.875-.875 3.875-2 5v4h-5c.14-1.646.287-3.292.438-4.938.08-.916.162-1.833.246-2.777C288 360 288 360 289 359Z" fill="#190621"/><path d="m263 142 1 2c2.025.652 2.025.652 4 1l-2.813 2.25c-2.458 2.04-4.403 4.075-6.187 6.75l-4-1 1.938-.875c2.214-.953 2.214-.953 3.062-3.125l-4-1h4l.938-2.438C262 143 262 143 263 142Z" fill="#CAAB8F"/><path d="M241 113c4.571.549 8.674 1.417 13 3-.375 2.938-.375 2.938-1 6l-2 1-1-3-2-1-1-3h-4v-2l-2-1Z" fill="#311F17"/><path d="M289 408h2l1 12-4 1c-.027-1.98-.046-3.958-.063-5.938l-.035-3.34C288 409 288 409 289 408Z" fill="#503756"/><path d="m237 98 11 2c-4 2-4 2-8 2v3l-4 1 1-8Z" fill="#57493C"/><path d="m320 91-4 2 4 2c-6.372 2.124-13.474 1.135-20 0v-1c1.247-.2 1.247-.2 2.52-.402l3.293-.535 3.269-.528C317.78 90.94 317.78 90.94 320 91Z" fill="#D3C0AF"/><path d="M146 304h6c-.551 5.239-1.43 9.974-3 15-.853-3.226-1.476-6.466-2.063-9.75l-.535-2.984L146 304Z" fill="#CEBBC6"/><path d="M348 147h2l1.375 2.938c1.283 3.133 1.283 3.133 3.625 4.062l-1 3c-3.375-1.186-5.647-2.276-8-5l2-5Z" fill="#534434"/><path d="M233 80h4v5l2 1-1 2c-3.063.625-3.063.625-6 1-1.6-3.2-.032-5.723 1-9Z" fill="#DCBCA1"/><path d="m219 461 1 3c2.015.733 2.015.733 4 1l-6 2v2c-4.833.083-9.237-.047-14-1v-1c8.571-.143 8.571-.143 12 1v-3h2l1-4Z" fill="#6F5D6E"/><path d="m200 138 8 1v4c-5.508-.59-10.649-1.567-16-3 3.097-.878 4.906-.994 8 0v-2Z" fill="#D4BDCA"/><path d="m297 363 2 4-3-1v10h-4c-.323-4.626.155-7.28 3-11h2v-2Z" fill="#E3D1E0"/><path d="M280 326c5.93-.379 10.472.894 16 3v1l-8-1-.813 1.875C286 333 286 333 283 335c.523-2.763 1.109-5.326 2-8h-5v-1Z" fill="#60486B"/><path d="m163 276 4 2v2l-2 1c-1.122 1.88-1.122 1.88-2.125 4.063l-1.07 2.222L161 289c-1.082-1.844-1.082-1.844-2-4 1.313-2.5 1.313-2.5 3-5 .696-2.191.696-2.191 1-4Z" fill="#6E4D5E"/><path d="M406 244v10h-2l-1 2-3-1c.445-5.04 2.713-7.376 6-11Z" fill="#2A1631"/><path d="M251 176c13.633.964 13.633.964 20 2v1h-6l-1 2v-2l-8 1v-2l-5-1v-1Z" fill="#D6B79B"/><path d="M147 309c2.427 3.641 2.174 5.052 1.559 9.191C148 320 148 320 145.938 321.5L144 322v-2h2v-3h-2c-.37-4.554-.37-4.554 1.5-6.813L147 309Z" fill="#DCCDD6"/><path d="M280 194h3v2l5 4-16-1 1-2h7v-3Z" fill="#DCB9A5"/><path d="m248 152 1.188 1.938c2.197 2.5 3.57 2.712 6.812 3.062l-1 3h-7v-8Zm7 2 3 1-3 1v-2Z" fill="#E0BEA3"/><path d="m245 115 4 2-1 2 3 1v4h-5l1-2-4-3 2-4Z" fill="#0B0202"/><path d="M353 96c3.496 3.858 5.86 7.907 7 13l-1 3-3-1c-1.477-3.49-1.072-7.274-1-11h-2v-4Z" fill="#AF947F"/><path d="M300 392a440.837 440.837 0 0 1-.875 4.938l-.492 2.777L298 402l-2 1-.375-1.938L295 399l-2-1c3.385-6 3.385-6 7-6Z" fill="#523E57"/><path d="m108 384 12 1v1l-7 1-2 5c-2.624-3.061-3-3.732-3-8Z" fill="#5C446A"/><path d="m252 373 1 2-1 3 3 1-1 2 3 1-1 2-8-2c1.059-3.403 2.009-6.014 4-9Z" fill="#C6B3C8"/><path d="M158 288c2.026 3.35 2.217 5.87 2.125 9.75l-.055 2.984L160 303l-2 1-1-5h-1c-.25-7.625-.25-7.625 2-11Z" fill="#71505C"/><path d="M255 103c2.938.25 2.938.25 6 1l2 3-5-1-1 3-.375-1.938L256 105l-2-1 1-1Zm-4 6h6l-1 2h-5v-2Z" fill="#4B4336"/><path d="M364 331h1c.437 5.33.437 5.33 0 8-2.409 2.028-3.83 3-7 3 1.45-4.108 3.454-7.469 6-11Z" fill="#C2B3C0"/><path d="M379 298h2c.981 3.053.981 4.947 0 8h-2l-.375 2.438L378 311l-2 1 .5-3.25c.588-3.78.588-3.78.5-7.75h2v-3Z" fill="#3C2940"/><path d="M214 136h2c.082 3.044-.024 5.072-1 8h-2l-.375 3.438L212 151l-2 1 1-8-3-1 1.875-.125L212 142c1.305-2.996 1.305-2.996 2-6Z" fill="#CDB3AC"/><path d="m264 97-1 4h-6v-2l-4 1-1-2c4.327-2.23 7.284-1.925 12-1Z" fill="#D8BFA8"/><path d="M282.25 423.875 284 425a299.491 299.491 0 0 1-3.313 2.5l-1.863 1.406C277 430 277 430 274 430c.898-2.844 1.474-4.597 3.875-6.438C280 423 280 423 282.25 423.875Z" fill="#523A58"/><path d="M392 282c-.543 4.565-1.795 7.973-4 12h-1c-.367-7.333-.367-7.333 1.375-10.5C390 282 390 282 392 282Z" fill="#2D1A30"/><path d="M161 264h2c1.125 1.625 1.125 1.625 2 4-.813 2.813-.813 2.813-2 6l-.5 3.813L162 281l-2 1 1-18Z" fill="#A78696"/><path d="m451 192 2 4-1.375 1.188c-1.901 2.12-2.687 4.142-3.625 6.812h-2v-2l-2-1 7-9Z" fill="#2A1533"/><path d="m350 186 2.313.5c2.723.591 2.723.591 5.687.5l2 1-1 4h-4v-2l-5 1-1-3 1-2Z" fill="#8F6967"/><path d="M468 176h2c2 3 2 3 1.563 5.438L471 184c.369 2.232.369 2.232 1 4l-5-2v-2h2l-1-8Z" fill="#E2D0DB"/><path d="M284 120c3.377.537 6.697 1.11 10 2v3l2 1c-5.75-.875-5.75-.875-8-2a139.595 139.595 0 0 0-4-1v-3Z" fill="#BAA48D"/><path d="M365 296h2c-1.317 4.609-3.152 8.141-6 12h-1c-.25-2.75-.25-2.75 0-6 1.938-2.25 1.938-2.25 4-4l1-2Z" fill="#8E7A93"/><path d="m397 234 3 2c-.813 2.938-.813 2.938-2 6l-3 1-1 3c-3.063 1.188-3.063 1.188-6 2 1.375-1.5 1.375-1.5 3-3h2l1-3h2l1-8Z" fill="#A07C96"/><path d="M387 96h4c.143 7.429.143 7.429-1 11h-3V96Z" fill="#EAECE9"/><path d="M279 72h1c.027 2.875.047 5.75.063 8.625l.025 2.45c.018 4.428-.192 8.564-1.088 12.925l-4-1 2-1-.063-2.938C277 88 277 88 278 87c.237-2.526.422-5.031.563-7.563l.13-2.154c.107-1.76.207-3.522.307-5.283Z" fill="#7D7D78"/><path d="M274 224c-3.75 5.875-3.75 5.875-6 7l-2-1v-2l2-1-4-1a327.76 327.76 0 0 1 3.875-1.563l2.18-.878C272 223 272 223 274 224Z" fill="#977283"/><path d="M240 196h12l1 2h-10v2h-3v-4Z" fill="#85624E"/><path d="M355 96h4l.438 3.75c.349 2.815.766 5.52 1.562 8.25-3.077-2.77-4.778-5.029-6-9v-3Z" fill="#796B62"/><path d="M248 97v3c-7.625-.875-7.625-.875-11-2l-1 4-1-5c1.79-.195 3.583-.38 5.375-.563l3.023-.316C246 96 246 96 248 97Z" fill="#D2B8A8"/><path d="M229 80h4a101.168 101.168 0 0 1-2 6l-2 1-2 3c-.195-6.055-.195-6.055 0-8l2-2Z" fill="#51483B"/><path d="m208 470 3 1-1 2 3 1c1 1 1 1 2 4h-6c-.826-2.892-1-4.887-1-8Z" fill="#D3C9C1"/><path d="M303 346c3.375-.125 3.375-.125 7 0l2 2h-4v2l-2.375.438c-2.59.44-2.59.44-4.625 1.562l2-6Z" fill="#C3AEBF"/><path d="m150 312 1 4 2 1-1 2 2 1-3 4v-2h-3l2-10Z" fill="#6E596A"/><path d="m422 251 2 1-1.438 2.313C420.9 256.964 420.9 256.964 420 260c-1.938 1.25-1.938 1.25-4 2l-2-1v-2l1.875-.188c2.403-.64 2.403-.64 3.375-3.375L420 253h2v-2Z" fill="#BEADB6"/><path d="m377 155 4 1-1 8-6 1v-2h2c.73-1.977 1.394-3.98 2-6l-1-2Z" fill="#5F594C"/><path d="M295 137c.625 2.563.625 2.563 1 5l-4 1c-4-4.875-4-4.875-4-6 4.75-1.125 4.75-1.125 7 0Z" fill="#D1BAA7"/><path d="M200 251c-4.562 3.041-8.355 4.23-13.813 4.625l-2.957.227L181 256c2.512-2.512 4.379-2.787 7.813-3.625 1.037-.26 2.075-.52 3.144-.79 2.779-.534 5.225-.7 8.043-.585Z" fill="#82556D"/><path d="M304 225c-2.073 1.11-3.886 1.974-6.188 2.5L296 228l-1 2h-7l2-2h3v-2c3.724-.693 7.21-1.111 11-1Z" fill="#AA8482"/><path d="M382 168c1 3 1 3-.188 5.625C380 176 380 176 378 176.938c-2 .062-2 .062-5-1.938l3-1v-2l2.438-.875c2.695-.858 2.695-.858 3.562-3.125Z" fill="#7F6577"/><path d="m277 164 5 1 2 9h-2l-3-7-2 1v-4Z" fill="#8C6A4E"/><path d="M181 131v2l2 1h-3v2c-6.152-.586-6.152-.586-8-1l-1-2 4 1 1-2c3-1 3-1 5-1Z" fill="#D0B7C4"/><path d="M334 112c.955 2.17 1.144 3.563.398 5.824-.757 1.744-1.574 3.462-2.398 5.176h-2v5h-2c1.068-4.5 2.14-8.75 4-13h2v-3Z" fill="#D2AF91"/><path d="m258 106 5 1v4l-11 1 4-2c1.268-2.034 1.268-2.034 2-4Z" fill="#544D42"/><path d="m272 303 6 2c-.564 3.27-1.5 4.826-4 7l-2-1 2-2-2-6Z" fill="#592F41"/><path d="M256 229h6v2c-3.924 1.665-7.891 2.872-12 4v-2l6-2v-2Z" fill="#886A77"/><path d="M304 176h3c-.432 5.094-.754 8.845-4 13h-2l.938-2c1.312-3.705 1.665-7.093 2.062-11Z" fill="#D5B193"/><path d="m277 133 3 1h-2l-.5 2.188c-2.173 4.074-5.53 5.642-9.5 7.812l2-4h2v-2h2v-2h2l1-3Z" fill="#D2AE91"/><path d="m285 125 7 1-1.938.75c-2.25 1.066-2.25 1.066-2.812 3.375L287 132l-1-1-1 2h2l-1 2-2-1 1-9Z" fill="#281912"/><path d="M277 96h19c-5.174 2.587-8.018 3.177-13.75 2.563l-2.984-.31L277 98v-2Zm9 3h2l-1 2-1-2Z" fill="#CFB69F"/><path d="m264 84 4 2v2h3l1 4-6-2v-2h-2l-1-3 1-1Z" fill="#817871"/><path d="M217 456h1a852.64 852.64 0 0 1-.438 4.313c-.08.8-.162 1.6-.246 2.425C217 465 217 465 216 468h-4c1.59-4.035 3.282-8.018 5-12Z" fill="#3B2D3D"/><path d="m262 442-2 6-5-1c.375-1.938.375-1.938 1-4 2-1 2-1 6-1Z" fill="#DDCADE"/><path d="M324 347v3l4 1c-5.508-.59-10.649-1.567-16-3v-1c4.256-1.16 7.684-.762 12 0Z" fill="#775F7C"/><path d="m264 337 1 2h3c-.313 3.375-.313 3.375-1 7l-3 2-1-4 3-1-2-2v-4Z" fill="#492F3D"/><path d="m371 313 3 1c-1.161 4.355-2.077 6.646-6 9 .61-3.558 1.578-6.683 3-10Z" fill="#261422"/><path d="M364 176c0 3 0 3-1 5l2 1-2.375.75c-2.948 1.404-3.527 2.257-4.625 5.25l-1-3c1.434-2.262 1.434-2.262 3.438-4.688l1.996-2.449L364 176Z" fill="#6D514B"/><path d="M200 160h6l-1 5-3-1-2 4v-8Z" fill="#8D626E"/><path d="m373 152 4 4c-1.305 2.61-2.358 2.68-5.063 3.625-.733.26-1.466.52-2.222.79-.566.192-1.132.386-1.715.585l1-6 6 2-2-5Z" fill="#CEB49A"/><path d="m293 127 5 1c-.551 4.08-.913 4.913-4 8l-1-9Z" fill="#2B1F18"/><path d="m241 72 1.688.875c2.397 1.166 4.828 2.159 7.312 3.125v2h3l-1 2-3-1v-2h-3l-1 2c-2-1.813-2-1.813-4-4v-3Z" fill="#C8B9A7"/><path d="m149 456 7 1-2 2 1 2-6 1v-6Z" fill="#7E6B81"/><path d="M262 356c2.245 2.245 2.37 2.96 2.75 6l.297 2.125C265 366 265 366 263 368c-1.125-5.75-1.125-5.75 0-8h-2l1-4Z" fill="#E8D2DE"/><path d="M298 343c2.125.938 2.125.938 4 2l-1 3v-2c-2.176.821-2.176.821-2.875 3-1.125 2-1.125 2-3.25 2.75L293 352l1-3h3l-1-5 2-1Z" fill="#1A0320"/><path d="M354 136h2c.313 2.813.313 2.813 0 6-2.5 1.875-2.5 1.875-5 3l1-6h2v-3Z" fill="#51422D"/><path d="m186 136 12 1v2l2 1-12-1v-2l-2-1Z" fill="#E3CCDA"/><path d="m250 440 3 1-1 5-4 1v-6l2-1Z" fill="#513759"/><path d="m285 424 2 1-3 1 1 3-5 3-1-2-2-1a350.591 350.591 0 0 1 3.875-2.563l2.18-1.44L285 424Z" fill="#BEA9BA"/><path d="M198 419h2c-.56 3.243-1.413 4.93-4 7h-2l-1 3-1-3 1.938-.75c2.245-1.056 2.245-1.056 2.75-3.313L197 420l1-1Z" fill="#6A5276"/><path d="M366 330c2 3 2 3 2 6h-2v6l-2 1c-.193-4.824.243-8.496 2-13Z" fill="#E2D3DD"/><path d="m249 235-7 5-4-2c6.5-4.125 6.5-4.125 11-3Z" fill="#886875"/><path d="M437 204h2c-.505 4.379-3.178 6.817-6 10l-1-3 1.375-1.25c1.685-1.814 2.618-3.503 3.625-5.75Z" fill="#8B7792"/><path d="M80 124v3c-2.709 1.354-5.01 1.065-8 1v-3c2.763-.597 5.16-1 8-1Z" fill="#D0CECD"/><path d="M234 448h2v4h3l-1 3-4-1v-2l-2-1 2-3Z" fill="#53395E"/><path d="M267 360h2l-1 7-4 1c1.875-5.75 1.875-5.75 3-8Z" fill="#69526D"/><path d="M266 298c2.063.438 2.063.438 4 1v3l-6 1c.875-3.875.875-3.875 2-5Z" fill="#5A2F44"/><path d="m398 253 2 1-1.063 1.813c-1.27 2.295-1.27 2.295.063 5.187h-7l6-8Z" fill="#2F1B37"/><path d="M420 228c.75 1.75.75 1.75 1 4-2.318 3.005-4.227 4.461-8 5 1.375-2.5 1.375-2.5 3-5h2l2-4Z" fill="#331E3A"/><path d="M353 191c0 3.78-.997 4.461-3.5 7.188l-1.969 2.167L346 202l-2-1 9-10Z" fill="#90646E"/><path d="M272 161h2c1.43 2.354 2.087 3.48 1.625 6.25L275 169h-3v-8Z" fill="#E3C1A5"/><path d="M349 139h1c.583 3.848-.3 5.763-2.5 8.813A166.855 166.855 0 0 1 345 151c-1-3-1-3-.063-5.188L346 144h2l1-5Z" fill="#BF9F88"/><path d="m361 114 2 1v7h-2l-2 4c.553-4.03 1.156-8.02 2-12Z" fill="#B09B8C"/><path d="m142 104-1 2c-4.288 1.3-8.565 1.075-13 1v-1c4.927-1.97 8.78-2.18 14-2Z" fill="#E9DEDF"/><path d="M341 86c5.625-.25 5.625-.25 9 2v4l-4-1v-4l-6 1 1-2Z" fill="#B29C8A"/><path d="m211 250 2 5-7-1v-3c2-1 2-1 5-1Z" fill="#523243"/><path d="M444 228h1c.25 2.313.25 2.313 0 5-2 1.813-2 1.813-4 3l-2-2 1-2h2l2-4Z" fill="#BFB1BE"/><path d="m202 181 2 3-2 4h6v1h-8c-.2-3.716-.152-4.772 2-8Z" fill="#E6C0B4"/><path d="M350 157h4v2l-2 1-.938 2.375c-1.046 2.585-1.983 3.83-4.062 5.625l1-4 .5-2.063c.43-1.665.956-3.305 1.5-4.937Z" fill="#C1A38B"/><path d="m248 150 4 1-1 2 4 1v2l-4 1c-3-4.75-3-4.75-3-7Z" fill="#9A785D"/><path d="M208 144h3c-.75 7.75-.75 7.75-3 10v-10Z" fill="#8B6467"/><path d="M32 145c-3.855 2.57-7.52 3.858-12 5l1-2h3v-2c3.067-1.862 4.597-2.215 8-1Z" fill="#DCD5D7"/><path d="M272 411v5h-7c4.75-5 4.75-5 7-5Z" fill="#523D5A"/><path d="M391 289c1.065 3.196 1.074 5.657 1 9l-1-2h-3c.375-2.938.375-2.938 1-6l2-1Z" fill="#E0D0DA"/><path d="M203 173c1.014 3.62 1.499 7.278 2 11l-4-1c.458-3.47.891-6.674 2-10Z" fill="#DAB3A8"/><path d="M409 169c6.625-.25 6.625-.25 10 2l-11 1 1-3Z" fill="#8A778A"/><path d="M253.688 96.375 256 97l-3 2 3 2-8-1v-2c3-2 3-2 5.688-1.625Z" fill="#E5C7B7"/><path d="m254 76 2 1v3h3l1 4h-2v-2l-5-2 1-4Z" fill="#7F766E"/><path d="M284 360h2c-.523 2.763-1.109 5.326-2 8h-3c.628-2.929 1.586-5.361 3-8Z" fill="#5D426B"/><path d="M299 346h2c.93 2.606 1.15 3.642.063 6.25L300 354l-1-2h-2l2-6Z" fill="#321C32"/><path d="m274 217 8 1-2 1v2l-4-1-1 2-1-5Z" fill="#C09B89"/><path d="m268 195 1 3-13-1v-1c4.085-.545 7.873-1 12-1Z" fill="#D4B19B"/><path d="m366 180 2 1c-1.75 2.5-1.75 2.5-4 5h-4v-2a125.024 125.024 0 0 1 6-4Z" fill="#84636C"/><path d="M342 173c2.51 1.255 2.871 2.5 4 5l-2 2h-3l1-7Z" fill="#DCB998"/><path d="M203 166h1l-1 10h-2c-1.35-5.397-1.35-5.397.375-8.375L203 166Z" fill="#90666B"/><path d="m245 145 6 1-4 1 1 4-4-1 1-5Z" fill="#DAB89D"/><path d="m316 122 1 4-13 1v-3l12 1v-3Z" fill="#9A8872"/><path d="M318 120h3l-1 7-3 1c-.125-5.75-.125-5.75 1-8Z" fill="#DDC6B0"/><path d="m348 330 1 4h2l-2 5-1-3-2-1 2-5Z" fill="#2E1E35"/><path d="M386 294h2v2l3 1-4 5c-.73-1.977-1.394-3.98-2-6l1-2Z" fill="#C6B6BD"/><path d="M165 264h1c.229 3.033.365 5.975 0 9-2 2.063-2 2.063-4 3 .508-4.318 1.197-8.033 3-12Z" fill="#7D5B6C"/><path d="M395 261c-.688 1.938-.688 1.938-2 4-2.625.75-2.625.75-5 1 1.773-3.926 2.48-5 7-5Z" fill="#24102B"/><path d="m469 190 3 3c-1 2-1 2-2 3v2l-3-1v-5h2v-2Z" fill="#35223A"/><path d="M451 188h3c-.56 3.243-1.413 4.93-4 7h-2c.613-2.962 1.254-4.38 3-7Z" fill="#8A7693"/><path d="M357 181c.625 1.875.625 1.875 1 4l-2 2c-2.063-.25-2.063-.25-4-1l-1-2 4 1 2-4Z" fill="#E1C2B2"/><path d="M362 148c5.75.875 5.75.875 8 2v2h-5v-2h-3v-2Z" fill="#DCCABA"/><path d="M299 124h5v3h-5v5h-1c-.125-5.75-.125-5.75 1-8Z" fill="#BBA389"/><path d="m233 66 7 1v2h-4l-1 3v-4h-2v-2Z" fill="#6E6865"/><path d="m298 400 1 2h3l-1 4-2-2-3 4c.875-5.75.875-5.75 2-8Z" fill="#C2ACBD"/><path d="M278 383h3v2l3-1v3l-7-1 1-3Z" fill="#15061C"/><path d="M74 371c-1.476 4.427-3.9 4.914-8 7h-2v-2l6-2v-2c2-1 2-1 4-1Z" fill="#907891"/><path d="M267 351h2v3h2l-2 6c-1.858-3.135-2.201-5.375-2-9Z" fill="#C6ABC4"/><path d="m108 345-1 3c-2.938-.375-2.938-.375-6-1l-1-2c3.053-.981 4.947-.981 8 0Z" fill="#E3D1DD"/><path d="M352 336h5l1 5h-2v-2h-2l-1 2-1-5Z" fill="#13041A"/><path d="m398 276 2 1v3h-2l-1 3-3-1 2-4h2v-2Z" fill="#BCAAB8"/><path d="m436 237 1 2h-2l-1 5-5 1c.786-1.15 1.58-2.294 2.375-3.438l1.336-1.933C434 238 434 238 436 237Z" fill="#B2A2AC"/><path d="M279.063 222.313C281 223 281 223 283 224l-2 4-1-4h-6c3-2 3-2 5.063-1.688Z" fill="#8E6665"/><path d="M202 192c5.785 3.446 5.785 3.446 6.875 6.25L209 200c-2.938-1.188-2.938-1.188-6-3-.875-2.688-.875-2.688-1-5Z" fill="#8A6E67"/><path d="M388 108c8.571-.286 8.571-.286 12 2v2l-5-1v-2h-7v-1Z" fill="#E8E0E0"/><path d="M256 108v1h-5v2l-8-1v-1c4.41-1.102 8.484-1.077 13-1Z" fill="#5D5243"/><path d="m267 104 5 1c-.313 1.938-.313 1.938-1 4l-3 1-1-6Z" fill="#E5C7B0"/><path d="M241 455v3c-2.5 1.688-2.5 1.688-5 3l-1-3h2v-2c2-1 2-1 4-1Z" fill="#E3CCDD"/><path d="M86.25 395.313 88 396c-4.625 4-4.625 4-8 4v-2c3.223-3.108 3.223-3.108 6.25-2.688Z" fill="#836A92"/><path d="M284 387v1l-5 1v1h-6c2.782-4.174 6.466-3.223 11-3Z" fill="#76677E"/><path d="m56 376 5 1-2 4h-3v-5Z" fill="#DFCDDE"/><path d="m257 364 2 3-1 3c-2.563 1.188-2.563 1.188-5 2l4-8Z" fill="#C8B5BE"/><path d="M386 284h1v8h-2c-.625-2.313-.625-2.313-1-5l2-3Z" fill="#17051D"/><path d="M159 280h1l-1 8h-2c-.125-2.875-.125-2.875 0-6l2-2Z" fill="#D3C0C7"/><path d="m411 265 2 1a141.4 141.4 0 0 1-5 5h-2l-2 1c1.444-3.807 3.35-5.266 7-7Z" fill="#C6B4C0"/><path d="M292 201c2.813-.25 2.813-.25 6 0 1.875 2 1.875 2 3 4l-5 2 1-5h-5v-1Z" fill="#997559"/><path d="m464 198 4 4-2 4h-2v-8Z" fill="#1A071A"/><path d="m209 152 2 2c-.375 3.625-.375 3.625-1 7l-3 1 2-10Z" fill="#D6B0A9"/><path d="M315 120h2l-1 5-7-1v-1l2.438-.375L314 122l1-2Z" fill="#473B2F"/><path d="M276 120h1c.366 4.517.366 4.517-1.375 6.813C274 128 274 128 272 128c1.125-2.972 2.223-5.334 4-8Z" fill="#D4AD90"/><path d="m248 121-2 3c-2.438-.375-2.438-.375-5-1l-1-2c3.29-1.097 4.713-.8 8 0Z" fill="#2A1E18"/><path d="m342 87 4 1-4 8c-1-3-1-3-.063-5.188L343 89l-2-1 1-1Z" fill="#DABCA5"/><path d="m233 80 2 3c-.875 3.188-.875 3.188-2 6l-2-2 2-7Z" fill="#D2BBA7"/><path d="M344 84c2.729.033 5.297.564 8 1l-3 1-1 2-6-2 2-2Z" fill="#928A81"/><path d="M226 457h2v4c-2 1.75-2 1.75-4 3-.125-2.375-.125-2.375 0-5l2-2Z" fill="#67506B"/><path d="m179 458 6 1v2l-7 1 1-4Z" fill="#261034"/><path d="M240 448h6l-3 4-4-1 1-3Z" fill="#4E3655"/><path d="m272 381 1 3c3.512 1.23 3.512 1.23 7 2v1c-7.75-.75-7.75-.75-10-3h2v-3Z" fill="#4D3C55"/><path d="M261 372c1 2 1 2 .063 5.125L260 380h-2v-7l3-1Z" fill="#B29CB0"/><path d="m299 354 2 4-2 1v2l-3 1c1.875-5.75 1.875-5.75 3-8Z" fill="#A896A2"/><path d="m340 354 10 1v1l-9 1-1-3Z" fill="#BFADBB"/><path d="M266 348h2l-2 7-3-1v-2l2-1 1-3Z" fill="#E5CBDA"/><path d="M276 341h2v5l-4 2 2-7Z" fill="#6B546E"/><path d="m139 321 3 1-1 4-1-2-4 1v-2l3-2Z" fill="#D5C4CF"/><path d="M382 301c1.478 2.957 1.06 5.742 1 9h-2v-2h-2v-2h2l1-5Z" fill="#C6B4C4"/><path d="m343 202 2 1c-.813 1.938-.813 1.938-2 4l-3 1c.573-2.867.861-3.861 3-6Z" fill="#93737B"/><path d="m279 172 5 2 1-2v4h-5l-1-4Z" fill="#D7B599"/><path d="m264 168 5 2v3h-5v-5Z" fill="#E3C1A6"/><path d="M215 142c1.255 3.766.37 5.372-1 9-1.063-1.813-1.063-1.813-2-4l1-3h2v-2Z" fill="#E4C2B6"/><path d="M300 130h2l2 3-1 3h-2l-1-6Z" fill="#D9BFA3"/><path d="M281 131h2v5h-5v-2h2l1-3Z" fill="#E4C3AE"/><path d="m251 123 1 2h2l-1 3h-2v-3h-7v-1l7-1Z" fill="#A18671"/><path d="m248 119 3 1v4h-5l2-5Z" fill="#180A07"/></svg>